<mxfile host="app.diagrams.net" agent="Mozilla/5.0 (Windows NT 10.0; Win64; x64) AppleWebKit/537.36 (KHTML, like Gecko) Chrome/133.0.0.0 Safari/537.36" version="26.0.11">
  <diagram name="PÃ¡gina-1" id="2vsfp9F-zujdhwe5Ro1L">
    <mxGraphModel dx="1434" dy="772" grid="1" gridSize="10" guides="1" tooltips="1" connect="1" arrows="1" fold="1" page="1" pageScale="1" pageWidth="827" pageHeight="1169" math="0" shadow="0">
      <root>
        <mxCell id="0" />
        <mxCell id="1" parent="0" />
        <mxCell id="Au1_wK9jKBwFf4h1bWoh-34" value="" style="rounded=0;whiteSpace=wrap;html=1;fillColor=none;dashed=1;" parent="1" vertex="1">
          <mxGeometry x="145" y="770" width="470" height="250" as="geometry" />
        </mxCell>
        <mxCell id="Au1_wK9jKBwFf4h1bWoh-2" value="" style="shape=image;verticalLabelPosition=bottom;labelBackgroundColor=default;verticalAlign=top;aspect=fixed;imageAspect=0;image=data:image/webp,UklGRtw+AABXRUJQVlA4INA+AACQ4wCdASo4ATgBPtlWokwoJKOtMBt7uaAbCUZ0r+BS6NN5p3sP798N4dL1IELRd/k3D8qkeNn2HmIvfemLcXc87p1UCd+j/cfK4/hMffx/gR/au3J/ed7P65/XegFiX17e7eYXg94I/yPqB+XPew0APKI70n75/4/3m+A3+7/8v94e2H6RCggKzgYlD8eYRNU7+DHGeuXa69HQJl+rzGUMcVUdI6GE7DvyTVQ5DLKK/fdXc0cGvUWl+DJoItWDQfV2egeBf4BwMsYvZmO5iF07i3bisP1+K/VKtaA4AD/dy4teLmNXWwRr46/ayf8JYTsY4IPZ1sFsqLUV0hhoTcJ9KZ1jvnPwE82XF2Z7+zu0vAEVRpeKlJEPx4XLNsu+q6vAZihs7KCYa/dSwNmh7/kjhXZViZSLvxUPsHIy8LLOxDkzR6EoGOEhc23i0EjPVxIp0Nq1bOHT9qazmeikDQy3jbGe9skkFYpY3EzKTSNLqicRPKj8UviXIQY5wN2Crsl/6/eCu7BulqovP/6VzLiIexOmk0PqHAM7U+IwbEsCZqmWzRkpuS7J4My+70B0cwO23gWNri4DMHZ74uh4H1Y6P6IZBh/ALhJ6EcEwFYA4egiAfT3nn5Bw5V1qjuJiLVPgXT/6E5T9YZoQLo2vvr7tGe8DYvFFq9Ae+usm68omoETmA6LhreBBsSnF2EZXPdzeJD/A3xR1fG40mWxNCdyDeQPUKqgUJ/xHHJb81E+YQqHcTF/QV4+zE8Igxg9PS2r5gVVuLcwBAyoS5nBV1EOCDXImHfLxhbO5Hhf3p7Jj6Pth8sKCICOVRiQmLBmOUO6nQE50SzhvZEJ0a8F7Q24KvdezfQb0cMcW97VgCrd3gvBO3c1o2hcPxoDvNpt7gGXwQK6D6XCm6bBja9Kzs3OR79fbbfPk3IF6qvdMvixUwOc3J77hvwAHgr9RhwPoJ5MbhlN38bQuHaBvZp0LateeHSHREBx6rPhaoE1wFicJYpi64++XoKzB4hiuo/pblJTvvBFPRcjJyjZcIQ9buF0/H8jsG/znC7ohm9UTMF9khwf4ny5TcMfLJUb71jOruIuMGy993Tf+35pX5SYDAPxxl6/4aHPBqq1VtGe2TWaQqtntjq5uLTSKZmJKAVe43PjUoce/U9YZoXnDJwYaIOYuM4Bsd4WsGmj1QvCplc1yBfGZf1u8IXr95x+hxCgpYPJZ5I7yOUPTVwamO13bE/WUU01oF4UhGq8owCt7cvWebMnGFn3OuxaqDss/rSKTmjR5N890KbL7gy2qpQRYh4TFjIrVmh0bMs4SMvotQlio1zcKIDTQfdIRXthbOoHutXyJKA61U1BKdqHJwhyRcennb9OTnJ/FYfC2lnb3DwfNcOD9gb6o1cayM/KOezhReLmhG8Q9+JrwuwFFUUH8/coZyni0QsNpiW0W3JyJaXzKsWqUWU7HQ3zvWpE696SsM2q6PpC4oyvF3m6uybcP0wErWmqNrZAytwEMockKPWR7WI3R+ld2rmYrH19kbMKQV/uV4RDGEh+vwUkFTGFdYedEy/LLwBmMwAkPRH0Juvp9Cyzsnhxm8Z8i16aPBzx4ehPa8jj1zgoypoHVD0bvNLicxIrdpUth/+74iTy8b64yz+7mj77u1E2Od5otlUYQiekFC9uavJu5UksacwDSoLpXaFzt7+1IgbGJcB1RVrm4kqMjRZbX3k45oiX+fwNS1uZgoSpC7SP2WuAN/0LtSjl7GS6hS49uvYJHmFlsVcQT7rO7Yam8eZkRzh/YPlc70wVBFGyyMTMRHj94Fl3tdrG4Zrz+2ajS3MKaLO0ciyw7bcIIsFxq4jv5hO2oV1M3ZR6wvegL+p7TzO9NnSkx8zxExkUKYUYPA2D9OuIEBhevd7ZB4cV6NjMiwGjj5o7qt4BGJtSjH1yH48jpKiloo01KCxxTLnlsrsYFxvUT9AxY107pzAvx2vxWSVcyzCmW8inR313DFhNRF5JVQxz1Uk4oDzv0K04TKBTdRm+qPe4ITebqeG6ykHFSnaYh02IXCURMWMUnVaDP35nURUg5rzSTdzt9VZBYBIO4gWHu3yBFNnBrFl4h12XDs/efGE/qPe/AlP7EUDdP3frvtPnUuQu1sPeI7izY5BN8cuPSsVQS1i2iPyiYC5/4+zavwKZxar6TdHY+il+CPBJdn2VQcN1lD20HPXPRdWuLp3P/bP2YMChDq/yFAi8813NcmJVdsMYgVtre0utja+uaAmGv2nRQgWc2Hg33geHykRgkQo1YJV6qAyu17IuFhpvoL20+QEuSnDawT8tZWRTRbsLkZevlh4bOHqaNvRSM6/sRLJlqD7y/lUPESNwhqAWPQ5eqlpBz7gSwBVxB7NYO6mtP9TFpKSFqX+sSo1rdefZkCd3D7vr3FinVga+YzgKMhdsXCnZIaoA6AAD+8GR01U8t254jovqrya9layO3IBlr8FhBqNTlOwk0K+jGBw2UIN8JyHOjB3mC1YTOkV3Ev0LkEhRwTTwQSdEMQBYDn+nUQQCSE6ifnh+bUUZFRCaeJvDVz4FCohhF3TYKxJE17FZK5vlHi2LZcq3CH222ySxYFLquBIvSoIV9TQYrrzzBmhM6K1OwSb88Ka3q9mt8NoAI/fcmIGjyaBxxKqyZzFmKm1oT5UVe60q/cCBJdZxBV+cYl9eCB1a6Au6ReGfSPbBdjp1UoRuePyvs49WmI/16UBLlO49hM/baaC8QOhhwZDMOi21Jwq0ySJ9R1jYpHwU/hP32ftKY+sxlAW0Pg9WUrSlCLeA3nnAPCO6MOeTxb1T4TDZgO4A7kmdi2dy7+ZpPUYLlsOHg4YkOtMjhBvFW3Uq+HNe8aLHsi4polhRs76ue2YSqf1sw9Ih2dTtbRFGmPTBbyhuEcdvHiqw1e6egDuK5Uz8Q+NLAqLtJ8RG2DTrYhaFQetHxOFj9SnotOALhhC71DSnsnwXiV+jsBkzMOLPWV+8sOxZ45qo9EOhdTU3/eeYhdv/bTyrw5JcTj1Wq/Wg2PqxmZ2auGl17lMjk/onb+2WiJ48Sm1F/mMByeokJEtOzwGwvwdUnJwFKy0gAudv309mAVLxQ4Qg9kDpIHvZeHIG6AjDAQTuY6wZRY3V2frKIVW1QTJpPXors/ufH1KCjDqvkMzmbqEg38JTRr7ucLhqc/IjnI6fsG38lcf3d/r3WM7lRH55YDt3wLYJSzvD/Js0h3OWGjOSpenzQ7tQv+zmzvLDGa8OL1WDqkeTCyXUr/2prMscAmvJGjuOnUTfYpOhSu2c0X2bTPXP6MAZLzH33iA/NRB5VA1ca2dYYPngQny3aajQTnCIkfYX6mL9veb8+BoFKx5LdKxFI/CNjBwNAgDMbVN0NNN7DtUCcmp0PffIV9ZqDh7QCczvn8qBudFunMJaXCnibvB3q/uWZoBvq6KgZ9JW/IYgeDpXsWueLoNUFAc8oFfhZNaUZD5PoqFJCPo920W5XgQ37Lq3zYC0OvgVtzhgzL/fcXxEylPPZHpkDiH5M1avX5VWcSjWujh6jieMySbVk5ecQpRuYRaXDH3827pOLA2zoHU66VtHSlxUDCJXVYdF9HePgTD6r9RFuvz1c7VdHGKpMbheUg4Oo4KUh5obNIdLz1uu0HOM1vtFhUK277wTDlHd03bv2THjLP/Z26NKbd4rruXuJyoO++IoW7u1eOy1ECSsNrRGvvCqFACsl5S3ErZd9LICGcGxBBOM/Gd5AtUUSUk/7kJeimRogJs93pQcoHgT9zf4asECASdYJr+Ot0sdaW2QgbiBhB/5m3usLT61mAxVu83dvzvW+e2wA2QgYV8Wi95jACwi0auLEYRtgm1OtIlaLYK3UP5K46XrAcmBln9vUYP6kYbFOZmB+5dnAfBENyuObSVOnd5rHl3URhx6atp+BNfZvWD1FqL0jGJs4VkRT7Ji+yxnIY5emYPQdw5x239UCUUI9PGc7lXCM20S1lx7HBCbfALjXdqMHVYP+5Qp+ysiNP7UI8AnRMBNaj8x4HF95zgrsAEB+YwHJr5/LQcOfqcwos3PCnnrYu65M85A2nvloViLxHJ7oMw4/VxQK2cYrRXJm2MqbzWGrjJEYtNvQJhSBjZ/0qkPZLQ9G65lReewCbi0Vi10c/+FoMubIloHc1T2MBLsxwV3Ag8T9AAbAQSyT8+U+Gzs9oWHmVrfS0CoxYIUkp8wxyeM1fejogvyNsjwhOsBBih7gLa/zfrWEigr+NZAoaGV6fIDQx5oYLa+gggvZir4GJv4miCbaIYk+nDBFTEyHyBYg408oBRliPQ3KCfsVZfp+Ei71k/+GdbK8lUDMyHQujRwNkakIrmM1Yyky+Zb7v+4Z+JNc+w3b7KFkHW8VVu1LZ5/frb4TjtBaADIc4M6CR3ATPEeH+vfpfwxlZ78K2xDlt99o3eoQgOflsrovCyO6PEoVrjFeS743Oa9ICIAiqCDWD6wix7tOC4L8TgDKQk6ajet3dueohOKfzuo4tJp/77RoMIwFk1wrQai4nXUoamWn4PS2YP4g/pDobKqZ0Y7WZig2KpYEqxi7woF5l4QKBm2z/NO611IxYU9luNFpzp5H4lxoyNNLGEYvcrTdLgczcy8mRnU9h3sxBDzdGWn/L9acbnkTMI+f7UeYIbsDV2IjbzQ9x++P8Mkt3h6hmIlPPon/6KJPODYOY1XOPernlhw5eaVyQNFr111cY6+dkIg8R9CcAnz9G0wyqXHtArJ2H5CbAUnfqecpZL69vCMix8NRZtXgmUmxM6Xn7I3wQTJgfU7CwSwfJftz7qaMcva82da4x/zZKfzPAKC2BGZWY1xdBAYUnIdyOm8G740WxmBAGs8kaWfBfjI0LRYEpS5lvXkb1D0fwb85i+lpOb/Wz3BKw8ZvpeQ+KkwdOkr7cftpQo1kaIpAGNdxha5lYiBbxPd1xwHsUeZDEBwi03p6d1YiGFv57VLvkH3oQYk+G0ij5m8Wj1uJ/DcVHKU4ZLUARyHrMVQSgj/83dGH4LyXHLq2h1fLzoiy1auSSGc6WMy3bDX7dQxZQD02umou37wgIxV/48zEpHXaKuXX4VebKuwHvwOGcTeW1Et2fL1HJw8MZYBMMLWGC8bvEWse3KwSsQTP+06EK44SGffzZo+cXqU23hFEo8i+SIkcFoSeUehZBqY/A5odGoyzfqHcBQ6PX/i9Ma5I4SV6J1E9WV6xSzqsQSSHHts8yqf4ZRCloGhhuVn3EPR47yRI/UvIriTbJQ+V0UBXL73GD7uQiyHjtYo6sAedi8oyyIvRjE6yHksZcydN8rIvKRQ2NeKtnQkuKXS7glt0awqkGb+fcD1g0YhJ5hbiOgstdOdI3pi+0EtFGuwKzHqT98JJMgiYO8m6BqH/yCFJiDhoA369TA02kpgPCvGWZYN3daJLyYhX/YhD6vWASYdEB1wZP7KMeFAa2DT1jFLGGrmi+3JVp0n21h1O3HpGJYFXjPOZyWuDbkimRWmNAfTf//so48Fl3Wl+RJUxso0B3YeGuswK6I1bL1RcH2KdFr5aU4Ri74lWGXJERzVjxq06ePcuYcscOcPmubsCwxRv3E+ujdE15k2RMIlfcVRtJ7es//NEU1Z88OjdiXogZcsYz1/zD64aLVSM/hvqDdHlU7xA4socrk9hdUNFcE+WzGqTcjQmBzGW5fF0ywU66u5VoRJwsja+i1fRURhyEZ0+umk/ybjwa+bRCHuJwu6RJIVhsVG1/W/zHMWbjmvkbhuBn6gh2es0fRJKzvOWwsrpInXJxHLvhgQlo2R2GiL06VeQA93afsR4UcAMIo1kA82N80b29zJ3F4yiQT4iJMGUpy7rOSYhIbh9dOYS0Oezca+FVrNx0lpWN4vRx3D/ciHPjZFmUR6MtCtLFfID0kDV+kSVfpumXJwEU8h2d7N9wyW9lJlf0DxrMm8DXnIr9bS8eFJpxT2gE/1onlxvANSJuL4RDhJG9ztbuErv8jWRmn7W6vUrLD2CtqC+tTxzt1tLqbPSo/X8a46D8lcLhef1mJJx1sGycafX1PG9G155crw+BULITdEroyHzJcGUq8gilzH1Y6RgPeKTUb8UnBR4lWQiwoGRJAt/QYJGPpehRtMC3ym9t2Pe+ESGMik1NUiiRXaGISEYapz96Qiy6iWzqPEy34q65mJeN7xqslcqi1ayfiV69BNMcfmkepFfUV76/Ft7//pRqukZYMCwkGpYTNvPek2TX26N9NpJbOA9k8/9EQuIdiW17I3E7gleNk6zH63A931WbBqmV+l8Xune/UmEs73LCSgTw/h+/lJFKJFjiFvnuOnk8U6tj/tl82DTLEOsj4v28gzmzOwnMFP/TqitHhGrH+jsMi7oCtDhEISZDHoSfZMIQ5OH1IL+4X4OFRTk5SbhcM1HVsdcjOPLnu9gxEeRpL+JHOrJjOzghrItc02GxXvrDfIAGjKLwp/pVpLMlEped2jTCeuJTbXnok+vnblYoBJocnId7RuXyHMtizPfCXM43rZxCQ63bOmrScdVEhzGUnD/97eXTKywjUi1nn/oIlgVo6nH8DdGZdst36/ESjdamlv7vKOMCLQkSIRFfE8uXd126wYgkY5aAEeO2+WaDUZjqm2wBVQTjAHVv1TRz9iwhRe7f+Wwny2f8osCgNNB2/Jp84Dj6MIOpKfde1fifoIEkZtVTrqGopKICfzgqG9xo3ahMMPKYyzd9kYqvsbbYZUeNwbR+xjKYYiEE++Yl6Otr8Q13Nhn5smJPrd+rEMG8V1IMCxdil9E2NvKwb3+jVOUMggWBxTfs3Ri3q9/XqWp/iRxQqiSmirP5IYMOTkTNJMqKro04poqHn1+5AXv4MdslxHjnD3ROldesqYt4HkFunS4i2KYCiDUxHsQdQXGxN7nSPEGJN92dOobc/5TXlHtHA4BGeg6sGddLXmXj1nVb/NSNFRno4q/3zNW3s97lXlUOUAJsywNUTFXj/felq6Apq6pvEpnDx38PBh/bs+dAu6WwqltIjLveFJBR9uXOVC1R1CX90Iq8SniY2vbAoKjBnieJ8wNnjMSms19ttiJjE3oGD5tibDEfKMDAvPCz3GzKavuCMyWQ/vTF5yo+ZUiFprAFC2ZIgm01EpHk7tKvEE01xUyhugC4rR5MdVV0lTO2YPSJkbAvGWPLujQnfyRPBIdkKgJqbVuOjdrsAMJebw0uBQkSy/msi3pX3aLu3r2Xyvd3OOQpc4emnqlYWQ587XHHcFhTQext6VvyjGqhJz9iqxwTXpC4WL26VCguwvs1rXBoPwZfMy2QGfIsLDQgr/kysrEL3/tLmJRfBhII5zBuMIfZs73SYv/dQgSRc7BGFR3JelR4gf9mwTvJB0+8PyDSB8DVzFNp6eaKfpX9m7XZ12kE4so3Ee4AU03AzL7aXs1DboLosZYj9WQNoLOW5kccoCNhMY1yrcpozhRyDpJpuvEIkD+xNJKRyWRqJ5SaOsD7aMB3EZNdlKDHU+V2Z5qgJXT7hgKyHTnBTCHY913pv9elkGPCMXcrqPZVlLaHlYtS7zxDs/e8/MZ3iZdRpYK2YATaDsqQHSIzQGawnj296mm4INdiDLK2ttkFVckrEnkZuv5o4FuaUhX/X7uppsimtgP32NpmDxniZnk2wwt/ITMev9ip++hGrunevvnJ8mhawFSnEADxotDuR13HJdiB7FAaBdwN55xYzVZzxsE5nno/PPbILfarR9E75m1/HM+scYsjZiLBQbUl2KEQXcLr7lXGg+KOgiUSdEkbjvBvwFToNtAYxZefon0mh/HhBYQ99f2A970L8ejMJkgGbftV7vnaXetxFfFA88b7ygoufWzrRZ3HpNIJKi0nDLo7kkTjF2JWvtjzgIUpJZEcrZYLUy/BtnzdmVjfGSTvp5E5cwwIaO7/lrvDdEhgOrMuQHsa3R8rzBcJOP8aWmMk7kV+P84jzsgh/Dc5vq3b4tRjgz18MioVrHJUbrukg1PovY1B8ADuqQahTFe9pWiVOjnZ0brJCvspZQ9LVdWvuDhLqWOcAG2+wpCjyIiPK9jRtQUU3Z1UkdAY4J0le1wU9gRP6jaZ7OSQL6ZiUK6lZsV4jH5MYp6e8IeXMuObpBiVLj5djr18XXCawQH3NcKllW1scQpcbQDjkmzQjYM80xmyyt5xK8t4xI/y+os/XWfrZkXO7oG4vpiuR7/5VzY+4GtxGNJIBkPQLLUgzPL9ycpF0W4pJ77F1sXFFv5kaXwaMtnKw7BLC72iVrvmurNtiGLOkJ4L84Ig2bnq+ysAOQh5Gz+k4llCkmCPEjpZy6bBUdjFYnUe3DwRIBBV/UvkVXaHVdK1jJ9EnNHPc9FXtC3K06DALyvJF3GyfQKofK9k7Tl/cxoqwenYeDCxR3JnMkLDlbJvkiitvJFlh1LsBKZmd2Fvlc1Fxug8mR4cm5vFiUVuRJbx+Et61NdrPMEXqBUdBuKI+QXi4Cn5MI5lF4r5w2xWTnFq+l8QtNsBeoRXamAueBHCXjLow1+PImX5fwWMIbKXcb2IbJCOloDqV8M20mXVOAGPNoz/unULpJ6fXdvzhm1/atfsqqVNVtkH3hCyKK+dJ9UETVB6Locl8TTZcq09CM162oCc8VHMZg8muXa8jCrWBmn4HiexuBz5xe3LlyLs7ugW+gOgxe688CfuA6q3akuQglM77gk7xL4dU6Yro236ewIJucI6iULxZFCVVD6NsFIzMRw6jBZxMTsX63kkvGkl8KSUcEIm/JMTOWNH8NMJoP76urw/lHS1P4aVsFobr/Gvu2D9Dv6zU9sokDiSd7E15PgErEGsOYxAhfiy8TlOCuxCSMzU6aE1ZmK3zJ14Ddby4E+SnYnBe9VmUgISpvnupB7/Ltz/+fisN1PMeLRk++oRGEOUHx7b6UnDW15PIgS5Rq+Ck9r2gtVNV4iNmkU2+8ftMlh/enVVDHycRYu1ZYKmqiYcHp5C6YOD+5jrZ5qfhe00cCaGfHBhIe2K6KbmV37sCAf2E3nplJYVHtJqYgfFDeFuSqS/5GuVu6YY658RGxCuXjfLzpev2JM8uG+zJuqVM9aA9ilc30I9br5ixiVpl3pNMQentUDu1vtYFRz/8uuxRSq6LRa0swoMNl3/B7omnvfIRb1upCGguK0ESBQT/jB0pqzT0DuOuuC3TCJsXKNkchrwgbx7UutPslaTqaBWOw1mRhxISe1lqtl5WxFqmWHSgjY1NIbIb0EgjfXBMuRAPBF+aHUDFNoTs4ZvKXDnJKmR8Uce7t/3DwDYqh7mMhAL4XeDkOVcFNwdZCM3evw3wgwEVenz/e7IDq6WzRw+lH+4U2R/KCmmGC3zEPxl15csSEV3OE7wj2eitkadbryPQcQURXNLhjrm986k3nJQUN0/5OQSFFZ+HsWBhG/BXyBMDAzC6Rad/KlsBe4u1ZgATSlJ9hGb7If178HKu0YMmFcu43LP3PzKiGrG9R8ZxgT1qG69oyyUWmcwIPPeu3R44QJTOi3lsfEAc0SmiAjvwiiHdwHQX7Mqo11BQl4lMbjPGD+pCnmclqJxyt0Wtm7flG2X+WM7u/+YSXS2Bm+cV4HHHlQd3rE67syWk0yMbjbl0t9BdHc47gWD/Du2dL/Sk3eKZoJTrypbIql6Z0cjFFm9g+H6nAO1fbrZ3o2w/8o0V/qBvdoqw1X38/uBs5MLcqyLfsDoVJznso4bskS7Ym96xvu+4gKIUupwV8EcnusCsyA47jycuD/IN7d1CNki8ubGlloJt6VRoTZWAnPokJvp1HEHPRz98FJElpnW+um0DX5XsJL9guiMcDy9P7VyNprTG6KsY4KDjCnfKCx8c7rZjxvDKG081BYeCot02u3ijq1Gvtss+NjZcTFPdylgw/qnS5BbyDnXVuiJ7R2O5pJSzw1VvoMDk47grLotaIKvRvuC56gI2uvZqxQ1iZww1gcaOgZ+55y/gy3DfQ2pbWyrbeGOb1TL61RtsdToaxYU/vkipgr++ih6Nw8tO0FwvuAbvsom9u8Kw1vgJWxdhGqzPHKSHSk8AsIAkymc0oopFwfisPEnIE5qaanluuVUpeFHGRE764hDqpgYeJMOosgbZ/gkXBX3JHbkeZ+GbHra2dj7m7OyUiN7pUTejYroSkZgRnG2vZTnyFL5M68Wute/GEXobB8pOIJRucE9iP1oG61uNc2mH7HZcBhvOXFEhWYXQoKW7nIbG/fKsk7x3i+O3vMK61zsd2YpWqE1kZ6Hmc7w7EGOo+1Hg6w/Dx5fC51QMLcDUBOwMm7iD9bPxrcgDl63aZc/sg5O+A8Gp6bHnGGSP49cGrk5Ibd3i4Pp7B7l+fzRjCPbiRMdoALzBOaWJ8yvdaOIL9TDPplAdSbX0xYZeqUgxNeMwJmDzV+jdwVS/RCRZb+ytu/yTx7mmAihKKaVgzUH3oLNRd8LFUNCWMnJjfOXfgpcIDZROzGaEMrI85sMZsdyV1g46XU9T5z55BECfChkCgh8l0rHEaQBUNUI2wPDiDADrNotz2Od2WldkfV7G7o/D7EwT19PRea4Gkxu8qv0x2ahQcnW/cytWJbYTK/Fimz7YyY5jgoBVZhHVjkvWJr2U5AYdZ5pPz7QmxQNUe6kxPrQekj3qgRAR58xMAvrmxdH9beaEf9A3PI7oVxd2XWQyWFULZ0/kBvZqXVGgm/+DJMDGEoBSpdvmGbTiemDnkSnrl/Feujqz3SAleY3LblqL55UMzoJHxJlP3/g5/6+Tzh93OESeWi8HLZDZCSjSG0wPLVkElZArWQfNTvHlbopj0XqtFMzTtgVmjjtGoZIbZ0Y80BTDZNflAf5YZmzy/sDdOjNhFbbdrsrRBBvZUF4DNuVjyDR3TCNVfd/iFwUWVqozoCexoqkx2fbF8qH0wA3qWg7imoN3QWTjeJN4gmzgRmyceUJk1KccNjVQjzMlDVxXNGG8vEIA8hYWCpoIHgAEY3qe9P7GWUrML//BgcPmFPoR9ThmDuQBGKUELS68SXW7wmw3RGdEWpNiBrnv57s+KXRtTdAe5c5mU/BRCoY9IPR8/4QgnczLALLiE1XxNJE7txDnnup94qxpsIs7jVPbwoZAMSjV9wraVFsW00eerMlbgNeoWJQNQhsVHbphdpL1ZCWe3ZlHunareV+iONxITDDzTdX0lsCqRqJqzfs6NzOhBf+vdyeJnNfnoJw8gZtU52mfL6vO6mdJUEpnm/0RXWKfnLYg7oSgZKNiaQRMFRiRVNhUCjAuFnKD3Mq2V/+UBFA2AXIAxvUjwAlIW9Kiy5I3pJHHFuQ8yxDN4PkWCqDBh2mB1jD7BMXnB/IgZndIc+G9qyBI0MX4rPC4474WEEYvZNDESIUrQ6Si2F/FQItVt8F8vpka1ppDk1D0u+Fqa+l65dVppQmgdkLJa5fSjmlu0CXMqDVlsSVJOmhTvQMBMk0O+4ZiOrOMCvYwL0mcysPDN7S0nrbd9GaSdzbN8ggx/SwwRc15yLHmS25Q5p4glEdumjEuYjMPC1+5Rrk4cT1OYRsv5yfmuqFfEbFVpzapbRWuJYeM5mDXmffvJLkkDE/gvssK9Ovl4kSA4um6pOTeARfZrt598Ks3EENHS8O97ZdtYqjNO7o5EGS8WkUfFm/YP5itr6c76A76zkDXK/7v9CrXIk8U87TbhcsyDLMlrlJuW2AkjcaB8FqzJaZeq8bADgfxNIj+Xz14CiiOsnneuGiFPtPYJqQSJLLVWQw3AoJ7vHx8RNLjPxg0Cu1Elt9XeWzeoVXXmQsrhwUqjLS9yrklZ6GxFuhsUIB0pkknpKqAwUsneLA9/5nE3cXdaCRasPp5TpgXXcs7G2+Gsy12wG9P549cQkfmTMwqSD97Y1348c/Nbf80yMN1HDdCTI3rjEoTsWdD1uwN9euSJ+K4QVkxjgI/fLMZAiR8TTPvKObURxZBCVZqCG6aRzvm7DSnjsqC2ormwkaW0jNcICIlvB5W+NWlWkosZ1FOJGSOk/ZJMvJ/ngPWzVG/4mr8uMLvd2ZvD2CPsM7Qji2CaYgfK4q3tDtqaX3D2yMS4R5Fajsc2SjKbQzNzQBLZeG/Dv91S+lRcyDkpl24S4JZCpQCR7DN8FqCoNnucyNc2v9D/poUi//xyh5BZz2aX9pSpTJ7Vt9K7ZmDfAa6PmJvH4w61DiLM3gNMspYicA7Zoy3E1w9xQDBRxlu/etjwvEhqsIzr+m1RZWfom8C/g49rsUP2+26mXmDrnU4HGsqdoCmrEApSNZbZlIj8NRBCyQ0QCETIkZJNl8VwFLDHyyKamV5a7Jll+kh2NWdXHTNEofPU/+U9Q7IMmwRU8ES4ZqnUuKHlGUBIh3THU/ZlXbI1eYeKTmu+NuNFNNmkKJCuNME48/K3Oj8jiD5cfpJ9tkRrrEfsJnJlMha/Tzvk7OAHRj3es1YlYharWY5e0bBgr2JuhaRJK81VETDNg6tR8teb12XLxX7onC8y8l7tg78j65YIkuQePWGu7QhOeDHcNnVDfvNLIeFVeix/ZAOvNDumJfRUGiT9+gQkzfBfSghWpFpDQuHR4DifrBdhb7dvNO4FoVajzp79tPRo0b6/+akRErxzwrq5wRKFpY9bG2JSCxJ8OVsFONi0+ZoPOyQLF9Oh1mGav9/09g+v0RCtgP7hN6TpE6x4Dma23Lcf1M+Ng9GPcmUGCxrVPeaugCJkeU1y2K1IRlM+9/TWozORrZ24amKXuKTpsvo6g8hYykA4tlIRlY/dlBgiRKzGu37BYmJGROR7oyW9p/O736eVUoPGhb+d4TWout+txko8XVi7Cx1EyBSb5oriYoMuTL3oNsyVL9ANWLydrzlT9Pub98ajuizCF/t2Bs3jalPzh1FoK79WQbQCOAyHcn85aLS3b3XYq45ykQwxqEwiHTAW9CmfB+/nnnTCFvGG965QLzz1IvQFim+U+RKXthGmSLKbknlYTeOQCAUH2hHUExSWF/6lsBL/2sBLHXlmth4NHbHk+hcoYhsr8158T95KrcQo2+LJY2g/f0FG32D6JdP24bf3Z9QdnlARS2+/8ae2pBeKrcdJ8Zzzi3KTS93852B+RSpTLQD6c7x6qaOfs75j32V5Ii6TNge//32bX6hZLywGLZ6eY7XVFiNIhbNZV9tSiYS8uRxXoqF257XJtEUjgBTcRk+JBJuGK68FnFGJyJz6re2etcgzxenQbxauJc2VA2X0M+/RGjzVGRy++9ctYfd34rERc9kqfrS8wM0gr1nONZurZh8rzfOPeqt6mm8iIuGSmXhjrgMZBI/Iv+KLqBSRZrI+gIyvUMkJ219QEygTUz1F7mbefMzu5ml7hVzB4eKen15o8EKZHNWJB6kOAxovRDC2FrXH/ZwGG0ekY+LyM7hJ38AtLWZZBIa2MQdIZ0NB3AI948u28i9d4jKthpmqC8oa1SyYswQvYuBuwFAK6aLKLsDrhgWK0fssNl3HZhyBCE/5HOWCXuBKdqb+jrKIkEm+cH8FKrA7xhQ59vECWIwDLEMIxHcuDlr5/X5cx/TdiNQ3FT/eFsc2Zewp69Fvu3pmKMzTKfN3WOAnQGO2+2G0pL6NKAVjH41ZwsoxoCDYnpI3nQsnSaEoaiAEHmaup2K5Y5Z0RSDw5BmkRCRcKM8dybmKRu+Djo1T8qGaP2Wf2QSWp1x0H4n1Uo5607/Hn+dIdXOgXdzagz70Fiw9b9lg1GbmX4eyqfGLbDfHZmhcc24/xgOvANn8RTXSb48WTct4AN4373EL0xbaHuL7q2oTGEPkPFbsaOfErRU03z7AJ25pvqZTtGegJhSoa7g1+0HpRcKblirgW9pCvn14KO6pSYxIYz4uqP4DUA40M3nexVr9DS0JYkgWywmo5eDVpmtelL/HjCzylVqp6QdfA9II94TIcX711DJQZWfoCs0/cRXh4X+l/p1bTyOOPiynH3iG1MRc9nBtPNKYzCc8xOruUhLVfVYHLhJYJywXtafa5EMAi55De6TASIvd82NQTKtl/FxBvOajUjI00cv+eFFrAFXtL30yafl+M1rHIrONPgrWQy8xGzoTpEa408o/4uepJDtXC0gICPuqbVQRmkN8FNhKfV9V9wHlkkNeXInZdd3AAT+mlH7yUz5a7lLlc974XXoGd5t46myOMSuMl0kRBEZofDoKt9TNg7EEg6/EljEXvhD0IC2BdVBg1BtHYKjNi0Vi3Hj8XEgC6l1++cQdrkHDlSwtrSYvgs8liB1rQMOnPUxiLFuJWe6EKh9wKeCzvH2azPep4ZLA3UGf8TFTsckO8L82nBDejFMLuo3vtDtaY3IY96KBd7f7AFKDHP83Ext5GvqMQYsUjdQp8i9l5xSn5tw7r7ACCy5NCWM9s/F+VwthetyEg/OCbdAm1s5pUXgfqqgmPT+LDE6mQ+kMwv19UnJKae/brjaRct+fc3j5nqCuFRoedanyJErllX1FFBWmYyJ1BMoCh4qHa5fbAUlYbTN4Lse+WcYZfaQ1n193qyuIhl/VH5rg4cUru1wLNPV4AvKAnEpV9HROwCgPcbMpawmloDtQu1hQgM8gQZckUc/2LVkcJRJAXFLmc/OxWMaU/pTqGGOBFeZOwMh6WHlhgUSj2dkJWxvV6P05YOmeXEx4sALArI4WGmSH+VXeMN6iz2CfrrkLYnQsjVGr9Vrz52GywAw9WlZXf7GFz9TYxiOy0w69pItj85VuXCkEnwq37h9eTLQgzDt1xXnUMSZ/dhaBhrTizvZQ/IHECraZpv9ZeEHV0PAcalS9d66sMRHs647Y07hFcMhP/nAgtr0Q7qWbFF87uAOJdnpfVT3+wtUV5Jdvryk8IdGQ+8h5IjIoTH9Uy/JWXvmLvi7q/K8DlVa3wDLoftlfJU+l9LqbwxHP3xrq4rM8bIqSlJZGgzwei3NM6nWKyPraBmAOr3zWzpUas3uH1aTssxRduds7kOazdrh7w8FKpbPqfCC02qPNCAMam4LEWqMooUAB/G87SgC1G8bo2xmdZz6sfcToIwMjniyaIUoRwbcUBvINQrVMDG/LsWXHz3QYsh6oeaXemmo+pDKwxZCKQBAx7eRX1Vw0aM8KfXzu/Y9DI6MzpCNWYfs7whKdDHPjKMi8VhnhlbiZzsTRAiGdX8pboPijyDIe1a0n+GEBq+LGIsEGvqbf/tsTlKQposp6Tws6sbtoL4EN7t8Fu7IBGMk2h8u3c4d5VLIAEUUtWQ6INqw89sRa1FMp+F1EXKaiZaGxCjb+PRoMeTEXbpn3VGSJBNYIRf16DKXyikEHOA15sxv5lkJ+6FvrIAVXnFYCDEY6vAoXYCx+YIgaI9X6u+eobZIg9zJ4/VI1KO18kYR7WKrJScTF1at4mADry4ONvWjElKDOhTuWgVIqfu0gnzs/jS+PLBdwh5Dphvl13gDljsPKqQ+W8ay+rxttp2eyF8mEi64tybxpY6UuWa3QFqxSAAOrk1cQs9jzOdBBqIeqg7bIRc67SXH/s9kfzNNFYQnkszq/OAnt4Cke1HdqQIA+wre5Psa0AcmmteDKBuhI0PEX5nSYC9kDC4xxBCJx5G3MVlyblvwarckjA1YaF2dM0eEdvqL0T1lWqKXgP/17uNUfw8503xPstrr+pFtTDy+JRYWNfcB2XFze77yPmL8TGru0A49SyWqDh0sWyQqxaAw377lSK0NO87gpyXRgVfNbyecb0cFUsvjUVmq1R5pHNSwO70/8lXiWjTB3LmQi/6RkG5U24GslKbKRr40rhdhmLGrGJ4+2luDBKTZdbJzFu18AJNOGNpx7uQWgymUysqjcVStpBIIaTGzqlE5Rva/CyFbd3DEyj0tLNyz+rUxJ/Lj7XX29v06EfTpON6o9QttTscN+t1v7brVvssyFWtNVH74/wYUAEig2ATTh2zIi6h5HnHuuuGiQFktt7bdISSe2EmDBeyuPCppfMCO0HRp2BJsyCZfhFENvFz4OB04ApUb7t7KwUiJbAvki1/rq9HS6JC/30GMnx5hU3va0OxZMm3Z4orRrD1uuEKfub0Ey9NQ6ahON6gof8FE5rr0OLLPeC8kdLlCy2GW7Opqrox1leuFLJp3R2rTsCNyHOKwi7/74wsmcXE9Pvco+QNQ3LZ2WMvSRkXl3nf6/x9+7lvErRsk2Cd2VYu8Sm3F2zJUfcw1CN+8m+tu1oLQ6k4te/cT4UaURbCbJzS4TFud39uB2P5cLxJksu5i7N0g+KlZJCPBlMC8OFzXpZlxITx8XMLu3q2b/6CU8Tx+Ek9CVXp66QM45KYUBQhlc47r+2bO6QzlyLl6ZKXWCq5fxupN4MKMOG3g49S3XZfzXtbd5MgdJAdZckAyxZIuOsBHHmwcaYRwMw7orvGtIUDF80qHdH0dtcBZF9KnreZpTOY3vce3VSM+rjY54rNUNBaPT/OA65ROfF4ro/jGfbRjVm605mqEfITO699aet6/TyOnSgUIiFDnkvERo6iJjdYNlb+tvTP+vdQGA1prgOf9/FGqoUK45YUErbFR7VVYbTkhuNTTXt/wxDKqWKnQBycA9IwVv2K6sSWP5V+c9uHl0Vdm3QjFT0hxslfHkYEJRcJhbjEyifRAVsq9EDi9AFAot9CdGON9jA1WD7s4wB56z8HaQ7oLhoUMMHMdtpjtAc2g69wTJlvau2AM0IaY2jMDtSVQgDWv7UuBYN6ud2BkxHcHjsYYUOVELQwbMFX5moFK5/QK8Ee0d5MGb0+gOxBnL43YlPw5IvZ5e5K+N0SFEtPusmTW/3DmFQD9b5aUbWM8HIYEBzzzcEk0vlV2STrkYZ8/Na/Dyo6BFtaakPuvqGYUDIGE5roaa/dUrcOP6ig3w4e/dZrIPWtf85Jk4x/+Xil5aEc9PHQm9tmqawY0EH8oOiT8LK3AP0HdUod3S5iY1TFTpVj13e3ugQGh546v+EsLR+rWpoRh2+lDwiIAk+o0Duh0Qmr4wHv6zPuEY2tqGCqK6H1GNcIvpcCcxgtHxzwcaY4Hu8xKRyzqhwwBHD4EfeuUxGcyLk1nnzK+yM3NnMb7NqGnevLyV2tWAORzf+Ilad6ZRGaMHQ2fyhwNxxLgRm+d+SRNnnF7Sc9BS4bthoVRg49j2Z5wgWKPsHSp3YjNz5HzZ/suJwlRDzH1O+OoPVA5iIrx6W0jUetBUuveMm69uSz+B+z7xbxkMngkjwUb+XrHqOOJEC1MIZqPMkw6Nbllh7cBdyrGWjDnjXWczvt4Y3cSvqsJy7XRCoQj4IThKgwA84r2wyU+VgfCzrZl7Htw9xA1UkaV8szAlyOia2USvu8uDeUykerXlCtHy7c6FQc4OZij6pGS70DNjleunR3fHtDsmMoIjR6ZYJvl5dp/igTYLkLokNwL1v9hLQcgo1Ky4/udG4wMO8BcwQ2TTGgMcN7wJMrqytIywxNDZ5GHc1qzSMPQNs19JPcePU3jg7hGlXb/sY56G+NAocNRM/uqGhQpIyhow9UObt2yA+FF4Gt0yWqhID6wJifpz4LwLO+4qhtT75i/M4J4bv2LFrnzv5g/ooAAiAayPSpuKepZfJYgGjq5ZP/6FPQ82rg1nQqchGSd1y1xZpu4W7de4jHTMo8s5aMYcRC8JXPm4rBCjNww8w8xyQliq9JAjXZ5ClZXYF9sSz+ezMjRudj01MW0MOE0wyqEahdxCJZMlKzKYYWTdDBZzQ/O+Jf8frkgiOPUdLTog98GUZ7ixyJAFv83d3z/VNE15Up6OkUEarujaHUG/ct2EiVDnIzMyBo6fE3MjOSk2zE+0ny9mVnuvPjVferNKAOhJM/hYCwb73EYvtTDEJSHPzMeVebCjVNDMqrZ6j7P9XuZHShD4JQIOgxJaA1FMpY3Ooy0IUelEsMpH8HHGNUlPki9D03ps4eJoAhBtTiqkmvV1hOmIoqbZbQ/WKy+y2wA/sbngdnHcNEdALfTPJVzOaLF8RZEz+lisRE7Lq8pe/2gae3Jc3dB7gM8FTVQXpgpLptBRRv/FvDNaKI2e4sFkNAfPXKgw4jCCM2h/nus7PVu0Y3UWj/hcYEkLX+p9Zzta7Besc0viW2Vh2fjESAp2Ct/FJRN8XVrTqfN+5sJpOzmgLrTAWlcYN/PaPHI27B7s2BsodB1CLQK98bwDNs2zdYnRbduc9at4NF8tY5456x+cY1sSq0uH8EDDhuUPx4fiAPeFavmLI2PAv62pKs/GLuxRC1LzcDhaU8gQI4T56u7yXzwhs5C17mFQYBOx9OOEiYX0kRSRGiibBNiGUMtHl1MEXFeMC1hVUJbtl5lLcQz0fAzI20JyfFJ49MzQNijFraVDhDJG0JyMM0JXwQ4IDB/NrL0RZbFue105PijFKvE2sGPPzI7q4yN8UR7R5spxHsSv5/BUMcPYMSOzNldLj+8QETDvjpier00vX3Scf84Ig8tGxMTeFyDQc+JSlPaP7TUfJVitIfsVWHk7U5Q7nJI9r/rDOf4mlz5swV4Eifnr9lBXtXQYb11Q33064WgnWrPZYpbabtQyQti8PK+X4zurceiempw3ChFHTRu/MHU3VALM3nbIbncfFjnMUUjHNgCIye/s8vT8Vvqj/oAIkEScL/H4vl9LDL/ylsqyBXNk4jd/ghm/0lCjefDZTPSfbOJb6dMNTlMiwhlBr4ILw8yg7Zn31k/ErvB2H7O0WZeErfjA1JUonoQQ6J1rmgXEo7qL835tdFFMkt3esEtoR+eBl/O+1NBdu44bEEON+wtV/bDtSrfkJziLsWSt6keAY+0xMKxWcPepGWyumcZsY0A73UKW0UIZMiQURAP5uGoqO1QMsR+qZ4I1qHvDG2zwkOqouGzYj6OTBLU/B+OUoZhczj9IZt1JjYJq1D7dVMASdQW/5g7tkvyc3l/sLHm3C5SOtzZRVvJ44E1QKA88rMBrZP4LeCjRyYoh1fxxzQPApqFfoqyh9eE92kmTr4nR2FFaSKDoEqxRkJGo1uIpa3wRit5l6apcX77JXhzxDoEF3dXP85Rx7EurmC5wqjvvb0FarAJWhxmMlKyLEdK7N+0D9X3O+QyMEijSSDdB9j5khdolAz4jThqRWgmbJb0z2gXgVMy/V1ZRu4L9pd21rtumtIsVyybHcyvSOthR3kGiIRJ14Eoe+x/MscWqrQVYo1o1LPlE2cTLYIdTOtiri6DqM4TPwj7QfBhJyghGXHaWMEdzsLSTIQnF7vCRkmy1XA3l4mA+2kEk9MTqf3cZVBBJw973rThrd3DsAXmQ+7baosqjbMqV9Hhc3nG0WyXEoXgx5v4Bt7B9RjIqIaT2X8RNQxBj8Y6RdYvBQY7vX7ChTAmooAGZfxh3ybG8Ces4+YloW2YApiuWyC0K8E9jiE3U5v3tXbmUEn0SadrDKL53sq6XT+ApZJfLjYGfeW4UlVqhxDymjOiepCt1OVX6uNdhrcOwpJOfQoMq+OGyUSmNUNwqVNZDJNL2y+40FbQaqLgIWEgzYRBOiGlNGjwCwaANVMUuQyG4/wxKl3oJCY+u//ETIPxe2CUmF/x0Z4ex60qwvcbKILMjSYuBbECZOw3rrBMkPCnFgQB77D4ZwFGA5wjMrG8H947Eafb92tNa7g8DRNZ3q4+er1sIFnrtEv5FL5iZ5HQHMQ0hRScD+z38aVlIhSYuM4hTrts3qJUys4hpNlk9lzCvkH91Jpq6Y8m08lasL44ovPqSvywQrP98LDwPOvI7p7x1E7BF51jIQ6Ml0evKWIZYDGd3lSpKtHbVVHkFv0jttMHMEUCfQZYXou2O59xiNqIVJY373yXdCTOpoo89o8KMBE4tHG3hzxwMbeSccNYhlWr8w+brTufKUqNGfKWBTftDkLpyJplCp2kM9VnE34VFu+uflMoJ8JzulF7sGD7HqGLScCDgC2jHRcqYO6qZrrNVMhH8kqHUFcyudD4boFNeZAWhNDuQLkPctKoWGl/2fjkHtRrCHMSU/kgkWaqzWDRR4ZV3GHHDM07JRE0UG9VmvrV/zOE2TdMdhsj00KGMd6znzAQo618yayM6wlKPdJ7Y7ycZ5Y9RS6UMcBEFH6YJTWrrpzM5G6Kkg28NiCWrMSCSxlF1yAFXOUYgazzcPmnsjZwTUPndUzz/tEZqNjnz65ZedU+IQ0pnM/2YT+hSVMMqkVtgTTbU6JiEStDA1kkl3mzKFrDMTxBX8VRhIxheBZb+O4jYKXpvJLuCqjbBAMqB5LZy1ZXSV09UbnCIx4s3VkKZrYwA+D1GU/W4ssKK8vfSWcVszinkqERQVLOSVl3X89Of70CuLh5HKpirqR2B/0oxqMchC0P9U+r3Z2raI9C4vD1q5q/oSgC4F07qIzWSNM4iUdE1g8yCA0aqDr+ZZ4w0FGUvoEdfNKeXJ2c2+Ki5KWOSISk4FXWLp/H87mt/gMG5ImU6iB6nkqp1Ckp97sPebuv8qj+JA2FPh03DOoRZjMA4yWlQYkZs9ZiuxBXpzvvFd9MdL1UrYisUYGVCggC0iR2QeWMNjeg44OAX1xPk9UVnNLVa0n0j/0FJIwCA865iIdqLnC8hXuocJ9P/seQvymMrXohhwj0UgfHGomCP2FIwtnAQ01akv89YZYhWhFF8R+zam+l+zBEOvExx/5FFqe3buBKakfbcL+NwjOYZX93bMMIBP68W2+TElb2jKh4TX5XfZHKaKHQUxn3h+R6lDUi9YMIBiafcTKEnABym+rlche9eiUfY1xN0PArsef7JdknAkwlDY49p3LTiZrZsdbJ9MDRG4AgiJEDZXnVhkMouvweLP04p+cDig5cztG5Dg7+8U3L0BNiHUd64t1zoEBHCf2PRaToFiFHuGDzuNQ+DwIckQuEguh6LtYJcCx3daVnveJnd6YIyviLex0tep4dJJYqKkYvyb80jej8ro7AEmFnOhMBShrCiNdSp63FSHK08BfXYXLeaat4C3yva72QgBfwoMQWpm4BMHJTW2ISHIl/iqrOB1PiDa/fMPpQZ34a+dOR7xV01vbBthOgabt1OqFd+v1OiX0DFrscmeYbhvCoNW+CUT3jg+qcZg2VhGl/o485U8cu5Lf9M/zILuWGLp2COGxKWHHIFT4EZYF64sT2TqCcK+8FJmM+BRoHf+t5Q+yLw+dbjKd0CQags5wSsc7Bo9tm124x++tGaPTYVFyBRocf0jszpH+ywHJFcdwCGX7dysh84vFtuV8FR0hDiG62LpqT+J6G6Nz38H1APCVzU9N9lRlSpNuZYPBK8jQuamOfUxDlEhiQkRFFp7n7/JC5FA++77BdZ5ALkizKeeJAeQxHpENRo1mz9wSCauSok8CE3zV+OkzTIputoSYcwcUdSiDsgH87cTJCoYaNuWSU7Urti/rKz/pgKhixCh8DOVjTQCVkeEdb/KiXTYNPmj7BerrTQn7f6beaRmennBegNAjW5ofiox7WNIrTqjfDsNpjpeEYSwxHl96v2a4ewAAAA=;" parent="1" vertex="1">
          <mxGeometry x="840" y="434" width="162" height="162" as="geometry" />
        </mxCell>
        <mxCell id="Au1_wK9jKBwFf4h1bWoh-7" style="edgeStyle=orthogonalEdgeStyle;rounded=0;orthogonalLoop=1;jettySize=auto;html=1;" parent="1" source="Au1_wK9jKBwFf4h1bWoh-4" target="Au1_wK9jKBwFf4h1bWoh-16" edge="1">
          <mxGeometry relative="1" as="geometry" />
        </mxCell>
        <mxCell id="Au1_wK9jKBwFf4h1bWoh-4" value="" style="shape=image;verticalLabelPosition=bottom;labelBackgroundColor=default;verticalAlign=top;aspect=fixed;imageAspect=0;image=data:image/jpeg,/9j/4AAQSkZJRgABAQAAAQABAAD/2wCEAAkGBxMTEhUTExIWFhUXGRcYGBgYFRgXGBoYGBkYGhoXGhYYHyggGholHRcXITEhJSkrLi4uGB8zODMtNygtLisBCgoKDg0OGxAQGyslHR8tLS0tLS0tLS0tLS0tLS0tLS0tLS0tLS0tLS0tLS0rLS0tLS0tLS0tLS0tLS0tLS0tLf/AABEIAOEA4QMBIgACEQEDEQH/xAAbAAABBQEBAAAAAAAAAAAAAAAEAAIDBQYHAf/EAEwQAAECAwUDCAUICAQFBQAAAAECEQADIQQFEjFBUWFxBhMiMoGRobEUQlLB8BUjM2JygrLRFkOSk6LS4fEHU3PCNFRjw+IkRIOU0//EABkBAAMBAQEAAAAAAAAAAAAAAAABAgMEBf/EACsRAAICAQMDAwMEAwAAAAAAAAABAhESAyFBBDFREyJhBVKhFDKx8EKBkf/aAAwDAQACEQMRAD8A2wkWYf8At0EfYHvERr5tPUs6P2QIFXfiEuCkxGjlFJB+jWeEeN6+p5Iz+SQ8oAC3MgfdidF/zdJXhEa77kKDiSt+ECK5VhNBIPbEepq3vIMvkP8A0jmjOWY8XykXoIBPKZZys47/AOkQrv2Y9JCAYPUn5Jy+Sx/SVeqfOI1coJhyLdjxX/Lc5WclHc8DK59ZcAdggtvn8hkyxXfE72ldgjw3rNNMSvKK4WefsV3RN8nzlCqVdgiGn5FbCUz1nNSjxUY853afGAzcU45BXcYd8jT05y1HfCC2FY059EnaRWPBaBlTspA4uyZvERru0jrKIgyXkPcFKmfWbiYZMmEJNdDAa7EAXxg98PVICg3ODKtIaxBLyZNKlGZQjNyTvOe+NItBEpRKzhYNXRnLQ/8ARuUpJwkV1b3wHewKZYQA5SAl30Ghj0dLVjqbI6YtGWvS0FbbhTbGr5Ozh6MjpERlLQSSymDnhGvum0ITZkB3bQiM+prFC1ItoMFsbaYhVba5HxhuJ6plk8BDxdNomDEiUoHR6PHIot9kY+nLwJNvw1xHxhwvlezxhSrjtrEFKE7C8FSeTMwj5xaQdSBFfp5vgeEiOXfh2xMm/RqI8TyPT609XYBBlj5MSZdOdWeLRS6KdbFKMvIGq2k9JMeKt8zaewxcSbos6STU8TB8jmZfVSIuPQ6nLRWPyZn0+b7R8YUa309Gwd0exX6B/cGBlbQsO4S8Ok4yOiw7IjTeqB6tTqYklXlsKW+yo+QMcrW5zpEsiUvVYETTLElVSvuaKn9M7NUKmJOTHm7QeLoEobvWjxPLSxaziOFmnAN2oUfGOqPRajW7RaiHCzSx+tJGwZ+ES+iDSTMUNuFX5QBO5Y3YUhKlqo9TzqTXjLaK2ff12E0nAcSseWGNY/TV/lP8BRr7PYmqJRbYc4PloQB9CQeMc9TfNh9W1Sx/8y//ANIn+XbGW/8AWSv3xH/cjVfTdP7n+B7+DdzZY0DfeEQHECMMxn+sIxki9rEp/n0u7VtTA7+isluLRb3ReMnFhE+znEoBA57GouzBlzC6n2RMvp+nw2M0YtMwUdf7NO9oinW5QzUe6J0WNy5wO2gAPviUpSM5o4dHyaMJfTnxMtUUFstaTmo9ggBU4FTc2ojQnKNKOaP61Pcj3CGqSKsuWRVuitLDZR340iV9MrvIpYFFjmN0ZI7od6FPVkkDiBB0u04lqSETOic+bWEnelRDEdrxNjIcnEBwLRouhgu5fs8FdKuKdrPbsijvhLHCckjN8zqpo1E2elqk9pjNXotOEl64dA+Z2xotKGl+1BsjE3il3ZiPPfG65GyUmyyyUg9bPPOMlOkJILipZ842vJi3y0WZAVmHDAb84IzjyF0rLhKiOqkDsiaXa5o9aIE3pJOvhEU695OSQVHui/X00ZvUj5C1WlZzMRmaYDFuJDiV4iGy70LtzST2xm+rS4Jeoidalk0PhHplzd5gKdeU/E4lpA0rHiLwtH1Q/wBaIl1bfahZhgQo6HuiQSJnsGIE26cKGYgbmeGrtM85TlAbQiMX1Go+RZh3os7/ACxCit+d/wCaX+x/SFEerqfd/f8AgZitdgWlLy04pgKWAYOSQHrTIkxnlX7NSSFy2IJGchRpTJJJHaBG1vqyzlo+YVgWKjYR7J/tpGDncprVJVgVNwqBYpMtGIdgTsj2dKEIRpIqStngvyv/AA5A/wBGTHqeUEv1rMf/AK8s+UIcrpxqcKht5s14FLQOrlVMP6gn96PKZG+SIpksy+bOetZ09shPugeZarIpnkIL/wDSPuiVXKZSmCrMW/1Zyf8Aux6i/Wp6Kpv9aYfNZg2/qFTA1ehHOzy/3c33RGLHYlHo2UE7Ai0PTc8Wov0a2NP3sJ8xC+VkKobHLfRitJH7BEGw9yrkWOyFYSbKmtMrQCwr7VMoPm2CySJoKZCU4VJUHnKQrEmtcaxTKkT2nl0ZSgkoQCl3oZimaoJfhviGXylSsc5KlEJJdxLnzEBVH6CFHAdairvCcUOzZ3de0pQJPNjJvnE7H27SYktNsRpLlqJ2KB8jWMJP5RWxT8zPxEer6GpDbsUxDPXUxVTb3vGYogpBahJs0tQG4qShQHAtEUgyN0qda8TJkoQOAHmYJTaLWKrmJSN1fwiOX2q9bUlgu3S5SRRhgxdiZSTt1aBvTZs09GZbLRw+aR2nZvcQ9gtnTLbfoS+OcvJslBPaXp3HOPbv5W8zLmCYgCSlJWFhRUFkqA5tKsI6RKqBo5nLRaT1AhBGqSZqxuM1bgHgYIsNhWpfTKpkwsSSorO7PIDsgySJb+TpV2qVPkIWrNQqwo7mnZl3xMu4xqT3xRTlCzySpSlMgAsmpqQGAfaYGuvlHLmFIClssEgkYR0Q5S6j1hWgePIlnJtx7EqcuC+n8mgXJJ7xWFLuhCBRYY6FWUVd733KkpdalMaliHAr0mJydhxIimtd/KQEzZqUykEAgTQSsjTClCnUo7GZPtO7VDp5z3/kpSmzVzLGD63dCTKTu4k1jJXDes2fjJ6I6KkOQ+BRUA4GQdJapfg0XRkA5qc8coxnp4SaZlKTTLI2gpoGpXN4sbNeaWcoS/CM6UkMwV+cOQpI6xKdGjOlYlNmjm2+UQxljuipn3lLdgGP2YgRaEADYHq9YaqeFer5QUn3HmTJtMs1Kz3RML/loZOPw1gRElJzqRsiQmSkEmW52kOXgpDTDP0mG090KKfBK+v+zCi8F5NPb5NxOvNLlkHvjE8v7WkYVhA5wIJR0UkliAQVk5MWAbNQOQi4XLNXB7HiG2XcidgEwMkKcnXC1UjiWro0b9P1VzWT2FnK9zGosNp9HFoUpITgSoggAsaBgRqRlFF6dagVURRQDYanU11oQX4xquU/KGXMIlplTBLSpyCEh8NEgAKIAGcVCl2dSGechaqqVgSpIoQwGMEkgkPsj1Pbwy02D2flHNYDEBp1Ekd7btdkN9OmrJ+druCfyiYiRgKUywDSpSpSjtckskZAMNIKtK7OMIlmaWOZLJD9YhOB+xxnB/sL+AaTd9qmpWpK1smhNM9AAxJO4CKK2WW1oUBNWpILkBy7ZBwQKPuqxje/pZhQtMpCEZhPXc1Zy9CWrlpGTvCYqbNxqViUqpO9z3BmgtD3KmTZFlLEpJBLjCkdxAoc8/CLS6EDEsqUU0GJJm81QaA9VVX6Oe45Q82aq65kHwfzMW9x3bJmvLmh1ZiuaD2dYGKiiWw+xTLUtDWebYkIAfElaZihvJKAAeIBihvKTLUo+lW5c8j1JeIjhU4e4xLbOTMuXNBkc8FJL4lYUp4ZDFwaEi7k4iVkqOZq3eczBJ0TZ5YrdLljDZbGgE+utlHvOXfDrQJsz6aa49hJKUjRi2cTTJyQzAAaAMPCBps5z5xm22Ky9u5KcCEaFSQwoGJFKbvKNHLs0sDClKEg7A3fGKuueTMlJf10b/WEbabPw6PuAfWPM6+dOKIZQcsJClWdaEjFiGGhb1kHOtSEkDeRtjnV0WqZLmFKceJ+iRQpOYW+0BxWnTMdJvm+pUtMznA4wupAGQNA5LAO4ausc6m2zEFKKXChRSj0gHUE4m9ZVRiycgkanp6Nv091Rrp9ixtV6zBN+fSuZzz1XgQnQFUteFQxDJ6MSOjFbM5gz1KUsrDAJRNUZZAywYgFApAywkO4dqgzLu4EYETxOSoghAmJ5xIcoJSkllKKdjUbZF1yf5HLxPPIwAkoQpitT6qYkJ4OXeOjU1VBXIttIteSGGZLWoJLkjEVEKxYQAkpUKMBoMvE36JICs2HBons8ssAB0RRgAwbQRJNmbQU6E0jxNXWlObkjnlu7IkSDhZKgavvyMRKsUzVm2CsSzMDuFlx3/2iP0haS4OJJ21O+JyfJDREqzK1S4zpERSkBz0c/ODU2v2gx9xhqpstSiOidj7BnAmAKEIDVU/GFMUGopTPlBC7G+mrhtkQzLGc2fiWh2Aznk+0qFEHoc32P4oUGQUa0KQKYnPFzEZtIJpSrH3QjYgC/lrEyZGRNHp2be6JR0U+TnV9WcCbMDesrzgBMsRf8p5LWhewsQeLVimKI96DuKZRGER6EQ8JhzRQERlwxUuC8G6I1IgAF5lJzEWNwrwzaMGEClETWQAKJ3dvxlDQpBt5Wx8jl3dkBSgVajbDLSSX17vjQQ+zDon48uMBmC2o/Hxwgfd8fGcFzUuc4r7TbZaFDGWBFGBKjwGW2poN+UJAlYbYbUUTUYEGZMBCky0ipYvXYneYu5M62WhZHOJlkJUsSZWasIcBc1WQJpSnSzgG4LqtNrSTKayySXKj056xoQGGYoCaeywpGmu27JFglzVupag+JS1YlqMtBmKrkAkB+KSOD9KLeTW5oo0YLlPJVLKLMnp2i0sqa4chUwsE5s4oHo1RqYhtN0mUsy5lcIRLI1bAla22FkqLxsOSl2zFWj0yckhReYcSSACwwJS9SlKSe1jVqD8rLIk2nAofSTZaX1ImWeZLb9oxdclGFNiCElExIwjMl6H2qVAOR2OHcUjQ3ZItktGOTMWqWHBlqJOFqsyS4DVCg4Lg5RZ2m7ipMg4X56WxLOBPl9BRKdUTAwI1dOhVFbYk+jqAWpaZCnCFhSsVnW9UqIbHKdQzoykqDYnJiBoLgv8AEzEm0JKUhOIroCCCOljSyTQ5KQk/aaLO3SZYUnDPcE9ZSFJfUOerwL1gOVZjPfGsS58t8SgMQUksApSQRiBcOoMSCK1wkabydnSh0AUBVQJa8chb6y8sBOxJRm1cown00JLsS4Jlp6K4JUap+rmNsRhOeGoHFuyI5IMnCmcs9MFUpZJIIDAoUogVSdSzg1YgxaMpiyXL12tUmkeTraThLFmDg0wVVnBGIpBdhTOJkWR0sQG8qmkRqnKPqMwyOZ7d0REpSlitRYZ7tp74zxZIWpOCie96f2jwTlJDHDtz04GKzG6AoTSomgAo299sP9HKiStaQDWuYDbO6DALLj037PhHkUXoyfb8I9icR2zVi1Kd2zfiOyJJNoBzBqzV74HVYsbhalBnZQGFq0b40MeCyJbrqGbVoSdvh3RmpG1sq+WMpOFKktmobWy1jKq4Rqr+s6uYdTYgQ7dsZNWfbHs9FK9JFIzNvvpUqYpJ0hsrlL8NAPKiW00mKhKHD72jqGjXy+UY1i/kLC5aVpNDXvz8Xjn1msClZRuLhlFNmQk5pKu51H/cIAZNNTFcq8JqFNLkY6M5LZ60ixmHdwhspq7/AI7opENlYq0T16pTwGLuJo/ZBFjWtKcK1YjtypvaGzhs8H8fGPJUwYk4gcNMTVLPVux++ChdwqdaCUYzLJS5OBAYK2YgDkcw9GqXEA3PYhMWqdPUlKQypy1dVCAejKSDSrAAZnsIN5eF4zZqFoly+bkYsRSADMCXCUhbVUSW4kgPSI7juRc+0SU2hGCQlWNEp0qJCGK5kwA1UXSnJhiYMIpI0SNjdM3DKFoUgo59QRZpRdykv87MG/ROSRXMkxX8p2DyQr1RKUTV8bz55IGqpcpQ+/FzakKn3gkkFMuzpxVydSVYUjcEv2pipuZZnWoqIcc2uaXyecsJlhsiyJL/AHniws2CbOlRUdEDxNPIGMb/AIhowJs9pCH5q0SyohLnAlWJttG8TG4sIGGdL1UQl94Q48Ypb1tiESAuYkkImIUQCQTiBQTQjILy1gYIpLCvnbOtEsgrkTCqTpiSRiQA22WrD3QJYLvRPE+Q+GbLUSkliClzzSiNRhUUHalSQXYQVyXu9YUlUlJUgrmSylJIATLmL5pbhQBTgwoYg02anXncs1FqkqlAJmDoqdQCVS1P0HNFKRszIrpCAy3oqpUnnpS+bm2deHApyUoNDJJL45eI9EmmFTHJ4uLPPtHNG0SFJai1y1dJCkqGLEqWWY4gsYkl+hV3cUvL+1YqSlBgSmasAgrUjqpIfqp0epqchQfkJaOcnLlzHw82ojC6W6QBZjQ1cbDxiW9xi5Scp+eQqWqWkEKExBBPRUevQ11IO0AODnBfJC/AoiVNVUj5pRObfqydoah1EZ/lFd5lrUC+JLhRIbEBkphSorT2VswTFZz5JSaJYJAYMxQAAQNrgK4k7Y5tbTU4tMGjsEsaqYhW4imXnrEa7EjExTmKh8mo3cx7Iiui289JlzOjiPW+qpJZSWbJ0nsYwSJRTUAJxM4OZ2EHujxJZJteDLayFd1S3bIVypqAwhIsCEsVGhJAcZ7mEEMrHUpYMXGbUDcc/CI5koAuOkAaOwFWr30bdCzkKkTfJkv2v4RCh/P/AFUd/wDSPYLmLYcLWCMzV+7bCE2W2j0OR0hSS9aZmr7Hp2wz0pSWADJHhnnt0iaRon5IL+TikLzoxyFagO/dGHArG7vKaVSpiScToUXALMKg/G2MEhUet0D9jXyNGU5Vo+cPCKOQnon7Q8jGo5Q2VSlEpBLBiwJNRsFdDGakpICgRqDlsf8AOO+gT2Lu6UxqbAGlq+17ktGNu+24KFLxqbhtomJmABiMOe8K/lhUDewQsiIUrag8BE0wsYr562B+Pj+8NEsGtVpANTUHiRFZabxYoY5kE7gP6/hga87RUt8NA86zE10SJYO3EpJX4VgZUVyXtuvchCZiTnMI2HDRbeCY6ndN7WZRCgoJmLAooMwSzIGgD12kknhw+8qIlJ+0o9pAf+Exq7MzoALuWURWpaj7nA7IFJxLqzqU+0yWmITNTjmHCoBY5zpUVlUKwhhsYDIQ3k2UmbOYADngkDLoykS0ADcClXjGNlWskoC6YSWVk5KWSS2wtU+54LXbplnnzQgtimc4gs4AWAp8+kMZWGpGilZDTRsU2wpVhdlrUooJyxoSDhPEP3Q+0gTJSEhJaYUYkgscGJClpcfVQsRhflKYpJUWC1LExLVwrHRUwU5wkNQvkIh/S2fLTzSZqU9YFZTiIfQaUIfLdA5IZ0zkzI5mSpRAAUucoBmaXzhb+HyEBXyhJnTFYEGYmUspKtAkqcudE4gf7xU8luUZmDmpygt1YCvECjDMQEhyPrJ3deJL7BUqTiUEqAUFEqSgKC2Qtio1IKUrbVxnBYFFZrtlG0iXXDORMkTArNMwpIxdrljxio5DJEm383NDYguSoHRRy71JSBxiw5UWombJnIYTSiXMmJSXCZyTUsMzSvbAXKWelcyXbQSgTMwBlMlYQqr/AGD3RL8lF3y2kIwySpQTNUMFfWwkhJ3kEJB3Ej1o5vOkpCwnqhTkPVjUMeCgUnvi85bcoxapkhaD1JYJzYTSolXkmKu/SFLKk5LCZyfvpGIeBG7mlbYiW4jS8hLcMSpSlFpg5xFahSQlEwA7cODxjb2VYSrr0yqNgdtauDHIrotRlrlrBbBNQv7pIRMHApUD92Ow2cYizAZMWzHbmS4jyOrjjK1yZyW5JLUGcKY1zA2Ed1REKgEuha8QUaA5s4qBuMS2iUkodaAVAEAgtpoe6sD2hQokgOACreOzWuQ2xy+o/BDQR6B/0FeP80ex76Wnb/EPzhQX8C2JVXKtMzAkAYS4J9ag1rlXYHGcNFzKUshz1gFA+xkptje6LSTeaVKCKOklIxdalSRuZieBiy58pSS/SY0YGqq6Z0EVCEZP4NcUzM/IRKFEqKc9cwAosa6kpHfHNjQ98dq9KSoENhfQgMyhHF7bSYsbCR3R6XRpJNIpFLfVumSJiJssgLSxDgEOxFQc6EwVYv8AEy0qBE2VKmMNRn2KcRV8q5gZLnSM1Z0EEgj1X8jHdYkjp1g5YWSZ9Jd8o7cMuUPwpSYPtNusUxLWaQZUxwVZsUgEZlasioeMc8u6XQGLy7FsscD4V90K2DiixWIq7drFovWKi8tfjxhkmUtnSWBtID8Y2FuuNSLOSoMszVOAQoNgRgYjNwX7DGPZ5yB9ZI8RG85Qz181JQPWWok7gEISP4TDRXBkJ1l5yemWPVQn8OLzVGquuUlM9QIokro2TlFW21ihuoj0oqOXzofYHwJ8o07pFoUoMUqSVOCGIfN/spiGzRE1olioSp6irMa0bx8IdPvCTPliTzglT5QCU43wTAkulljJQBIYir56Q2aGJrv/AGa+YjHW1WJSiKpFBXxMEWDNFa7y6OEjphOE5MDqzRQE1L65cfgwNKWcon0hiGictBdJI0LHMFqFo0lzXlz6hJnLZKipiwKkqUxBzcuUJGe3WsZuaDXMvA6JygQEljpxGvhABqbyJSZSyS6sQUC9FoUMQ35oW21Rivv68FzWBPQSThTkA9CW2lhWB7Rfq50tMpSUhlYnq5WUhJrsUEpptDvA6iSBWgfxb8oTAhCKfGkIzCClObAsODqAHEYh9+Jkp6PafKAbeCkoUMxUcRl+GJQg9VU02M+5QofGOzXLbZkyRLXQhSAraXZmbiPCOMoAqBlkOBqnsYgdkdQ5D2sLsoBLYVKTr9qhHbsjj62PsvwxSNGEY0qJBDAVZ2LbNod22RHMFQAekXNBmG8KB23GJjbEszOOq28uRlRzV+yB5qKuXUtSaaEMmtCcn0bbHkpoh0G+jS9/7IjyBflVG0d6/wA4UL1IgR2i2IlTHUia7O6k4gMwkBQrMFWB351gFXKfpqKZU1wpIUBniQzDAek9QWB9rZG7n8nbOsMZWGrjAooDjUJBZ+yKCfyEs4BEmYuW5c5LBLvuOp1j0n0tG+CYpd4KmUISFDEUsolKq0BIyO7Rso5xfkvDaJiQXDuGrQ5Zdkbf9D58oOFS5xqGW8sVNGSXZhQV2bIxvKSStE/5xIStkukHEHGTHg0V0elPT1JZcomSo5/e4K7ScWTsOEQTU/OjegeUHXqGtAfanx0gW0D52X9kj8Qj0iUyysHViwkqKSDsPwIr7vFIsEphAWhm4gDtirvTXhB9hqngT7u7WA72TxFIogychL2iVvmI/EI6Lf12qEqROPs7XNFqrwbD3xzuzhrTL+2g/wAQjp3KqSZcsAqxFSZiiRQUIShKRsCUoA3CHwy/Bi+Tko4kqYkFBFBmoqJw8SD4GL20SlSlhXN4UFCQkgDCqtSCKOTpn5wXyOusLTKSVFJKlBKhmlQlpSlTGhqVjv2QJb7vTLn8zMqaqYEhJUHD4XzLGIKTAb4KUqxY1Y1OGBcM5BHDOKOYnCcuyNByhlOstqxP3g/m57Yp5stw4zGcCGwMGsEoPRiAiJJSqQwJZSv68Pjyge0WYuW0qIe8SLnhQANN5yaAQFaRkoZHwMES14g/fx2w1cvokPk/wDAsmZgL5g58IQFmOrxb3/nANsqE7iB2O3vgk5bdRwga01I+NRCAKu/pyRk6Q1SA7U11bSNr/hveKRz0pYdJwrydmors6kYW7FMFp2KLfHfF7yQtAl21APVWcB3hVAO/DGPUxctKSQmdOmWmzPzeLAro5ghgM6tmBqfKB12hBUspW+AMrXQBR3hyOLg1ENn3bUE1JT0klTg4nbJyB0XNciILu+yywkhQCqYQz1DMxIHSZgBU0SN8eGo+3cWFgfo59r4/bjyLD0Ozf5J/aT+cKJx+RYxLpF/rBGLLXYX3H84Nk8oUMcQZhmAS28gPrGd9IlK0ALDJtj6dkJblK+bUxNd4rniTXNtI9tSZ2OJfC8kzphKiUykAF3IBWoHouDXCKneUxzz/ABFATagQzKQgjsp7o186eVSpRdOFSEkUKs0g4i41qe2MZy/S0yUoJAGHTIAKbTSoi9L9xlqraznV+/TA/Z84EtY6cv7w8TBV/wDXSeED24Vln6x8xHSc6C7AYs0mKuxxZIgCw6xKoezxf+kRXmaD4+M4VhPW4eX948txplFIXJk7OWtMt/bT5x1XlWoTOZczAMOFRLJWCFOagMKKTXZHJLYWmA5V98dEN5C02ZKiHmS5akLOimw4GL0d1Up1Yk0Ra2Gyr6MuU4X0gllVxEqB6R3KIeJ7XcEzEufapqAUVDfOTDQJbCGHa/GKa1WtUqzS1EMuaDqxZRUXB+y37UZydZS7oUQRV3Pe+hhbDo0PKyySpWHDPStRoqWxCkqGZ2NpnGTmqILj4EeTkqBJOesTIIIp2iAYEqZiOQEep1j1aGprDYBHqjDEx68eQASSqEjQwLOl+BgtNW3Q20oqRABBY53qns3GJpyNYDWmCrPNxBj1h4j84QDELMucQoNiwqG8KAIPaDBc5RQtKk0KSCDwoPJMS22QF2dExhilkoVwzSfMdoiDFiQH4dsJoDskm9kLTKUAGUlCsh7J2ahznpBYtAcsQl6VSBtIJJrQgj7o2xz7k5aybLhLfNrZzQFwSHPq7Ad0H2G2qZasVMPSS+MdMgDCE5h1CqX6qo8Wek4yaM7dmv8ASx/lJ7k/zwoxPytP9lP7xX80KJ3A6RPu2zmiaCooDQnWuUVt68nytK0ImEJKWUxL7XcBmp3QX8oocBFTiKSMROr5VGeu8Q2ZaDiIKSdaCoejtkKER7D00zpyYMBPSiXJQhKUy0JQGXXohIxdIUoDRz7xm+XBUUylLDVWHcVyLsMtNrxrpF4EMMLhqmpGwChrUMSwzjM8vpoVIRWqV+BBeh1cDWKhCmTOVxOY8oPVLbYGt2SPteYEGX4OiKawHbOok/WH4f6RsYILsufaYsZcV1lFYsUGGkSEWXM8D5wrd1YbZz0hrn5GJbaegwGpr7oYGJvIdKLa6LYQhSB+sw12YS4btcRV3qGVB3J+UZoUgddIK0bwKqTx1HbGZqizt1smTFJ5xZVhASkUACQAAAEgAUA7ok9MSgNhJOXZClTQQx7D7juiBaCok74CiM26rhJPFTiIlGYs4mAb2Qw7YN5pCA6+wQFabQVj2UDTb+cAEc20E0oW1b3xEFwiH3DSGvAIkePc4jTD0QAOfZHq1OAYclMLBAAPMQ8DKBBcZiLAojxUkEF2fTbAAXdNqCgpJyWGO46HvaBUSiMaM2NOIMA1QXEEzLevEmYTiRkQwdL6UhMC5uC8RKWQsshQAJbIguk13+BjSzQlCDhCmZykyzhbCMinrKbVtKNWMZaZQoRUEOI6Hd3JUTZIEmaMQQMSCsuDUFVQXGJJZmAyjm1dLL3FRSexl/lI+yr95af5oUaX9D5/tzP2U/lCjLGJXpmmtFcKSXbfgAJzxBwdjnU14NMuYkklQZmKQkOak1UdWbhVtxwkgHJ3dIJSdrsK782eI8IALgAh+lQ1zZiQc3qDr2x3URYFKWXCS2EDFiGIl2cBw4oH2P3RV8p04rKWqBgU7uBkMiyqudIv5Nn6X0Rdm6utcJViBclsm2b4gvC7EzEKS5dYL4hUsCUqxEmtAWYab4aE+xx++B0Bx74Bnj5rtT5GNVbOSlrUMGFBSCeniLMSA+HDizaBlcjrS2DnZZpUYFFmyy46xTaIUWUlnUxeDhMgr9EpyXea+g+bBD7yleIAPU4aQDMu+eggYAo16h2UyW0JSQnFhNnmdJPGDLQegR8fH5xT89hUkLBQXyUkp7ic6xbKLpO7+0WQ9jIXuKvEdzTyiakpLF6GCr5EVclTKSdhB8Yh9zaPY2drIJJZtaZPqG2eXCBcVXMFKAIBBFWLa1DwBMVAMbMDl19iYhWCanLYIcpI/vEaj8PCAasxHDmjwiADwGHJhoh0AEiSdDE6Vk54e+IZeGJShO+AD1oa+se4RHkMBKwnjsiMSEAu9NRm+6JA2wGIVjc0IA6ySaYKlOaTmQNU9kdB/wANJCkTeeWejM6DudEukCvtS1kj66Y5rY7SUGoceW8R0/kdbibGtOapa0zJStxfE2rhlDgqFQLudO59W3zhRi/l5HtD97N/KPY56Oiy0nIWBUlsh+TlqcI9MsE0DhwSGI11Ykb86xLNS+JLgPqwAAZnD0YA5ZO0eSpTAU3Yjl1dNHrpHQYAkyXk2EVIzJba7mg/INDp8s585VgzkEjY2OjisFACoAauQLipbaPf2QwzXIokHJ8i7MA6XHvPjDECejAuKqOZA1OT6jTLxq8DWiyYVFWIqLEENm4ozEPq7bosZksthc4tQ2HJsjqc/jOGlOkCWo7PkXB89hgGVq0sHSkk0xEOGLmoUolgDnmK02xDMswAUVIoqiQQDQjXo1BO8EZl2i4VLxJAJYpBOQA1A6IZxTLQCGCTmCkl6/GzSvdABmLTdaSSMksRhGtTQUoKN2dkZC2WdcsqQUKNaqSlRG4ZZ00jp0yQwog0qXZ3fLEQx+HEREKBSKO5DFNC4whyli1doh2S42cOvEKWWCFO/skecNl3DNObA7NRx747NMsZJBwoSohxQnpMQQD6oZsy+WcALk1Z04iw6QoEjEwKiKCnhCGlRgVApSkHMAPugMpc08Y0V52GSJxExSk4mIKQClttaioPe/GvtkyzyjhlLExZpuG/IaVbSucMCoWpqP4/DxCpe+JUygTU9sSquws4UD7uIhADA9sIcImn3fMQ7pyz/vECVEZiAD1oShDwsHSHkAiAAcjWJELIh/NBoSpWTQDEmZ2Q9tkQzJbNwhSyYBEyNkOVKT7ShxHvjxKSaiPJz1BNXgAnlSE+33kfHZGv/wAPZ7TpskqBGAqBAOhDioBaMQJep7KeUW1w3lzU0TADRKkrYuWUML7BmM9YYG79Pm/8wjum/lCgT9J5P+Rau/8A848ifTXkrI6LMlkYOmRoxArsAYuPjOIyVJBNAWU4dLaZFRBPxUxPMPSAJGoCtGzIyrs25QkYiXJNHfDqwozEPlABX+kYaELrVyFDc7pd/fEomaPkHSGBDj2a07YIErpNh6wYmueZTXhR4ZzILJArmCUDUM7B6s8ADLTKyDZ1zq5Ob5bOyGS0AZsA2wmtWdiya7BExJFDhJA1wvXFkSamgNYbMSTv06wDFxQmvgdd0FhQPPQ5ISE0ckNUGlQ5d6gbWhEAhwohVAykku58ctuzODJ0gZKDE6OSogVzO7QQ0yc1AEjJnCRvILB6aGu+AAIMSQAS+857RrQU2ZwkoCk1CHByzevj/SDJklPsnRJLEVFauatSsDCXmOBDitNmuepgADmWYAqKSAS+ygfYCxZgKw2dZSSmuEBNDRzQsqgLvuEGplDRiwzD+GPPsjwySWV1aguSA42j88oAMdf9xCahT00dJZTBJyOrlq4RXWkYC18mJso9BCnbrKUAa7B31G2O5zZD1J6QLvhFHzNDu0BiD0IHJJfIvm+7Ccidp1gsKOBCzThnKX3e+GAWgHogpz0/OO8zLCjCWTWgJwqpuc6aPEUy7Jb/AEKHo7Jo1C+LTwd4VsVHFpV7W2WyQtaRsqzZDo5ZOIjmXjNNZkt31bP847VMuOTR0IyA6ofsINIam4JJrzaSl6hk0Gx8KqcaeBgtjo4kq0hjQp8c+EMVOFK07u2O2y7gklLc0mrEKYgMDkX1790STLhkgJ+alpIZqJzdnxOamoy84LCjifpKcgsHe8N55JqVAdojt6+T0h3MtAzcFAo/Y5Gp2QkXHISDiloINSQGB4kZkM/GCwo4sm0pp0mpWoPdtiPn06qHF+Mdvk3TLesqXiUKlgrE4yBLvplDTc0oEDmpbspmSkUOmh1PxkWGJxAWkDJQ74kTbU6kd8doVd8gqAwy+kGAKU7GZIrsJziWTdknEWky2DiiGLs+SuIygsMTiRto2geTRc8n5bzpaCl+dUh1YCWQlYJCTo7MTvaOqS7PKJKcKG3B61dwBR3j3m1NolnByUHdsjnl5wKTY8Rnof11fHZCiVrR/mJ/d/8AnCiSjTDLt9xiJWS+zzhQopEsjn9ZPBP++C7w9bgrzhQoOREFqzl/GkVdv+mPD/aYUKDkEF3N9Gn7vvgqz/SI4e+FCgExtn/m8hHlm66fso/FHsKGMarrHgv3RFb80/b/ADhQoaBkN45yfsy/xGH3l+q+2vzMKFCDgnsv0CuPuiKyfSD7n4xChQAey/pV8B5w67utM+yfwwoUCBEUr8vdBFi/4f76fMQoUIoAun6CX9v3mCZP0sr/AEz5woUIaJrZmeP5wHO6s/7nmYUKEMHHr/6crzVCvvOT9tHlChQCJJH0naIis/63iPMwoUMlmchQoUAj/9k=;" parent="1" vertex="1">
          <mxGeometry x="360" y="245" width="85" height="85" as="geometry" />
        </mxCell>
        <mxCell id="Au1_wK9jKBwFf4h1bWoh-6" style="edgeStyle=orthogonalEdgeStyle;rounded=0;orthogonalLoop=1;jettySize=auto;html=1;" parent="1" source="Au1_wK9jKBwFf4h1bWoh-5" target="Au1_wK9jKBwFf4h1bWoh-4" edge="1">
          <mxGeometry relative="1" as="geometry" />
        </mxCell>
        <mxCell id="Au1_wK9jKBwFf4h1bWoh-9" style="edgeStyle=orthogonalEdgeStyle;rounded=0;orthogonalLoop=1;jettySize=auto;html=1;" parent="1" source="Au1_wK9jKBwFf4h1bWoh-5" target="Au1_wK9jKBwFf4h1bWoh-8" edge="1">
          <mxGeometry relative="1" as="geometry">
            <Array as="points">
              <mxPoint x="189" y="515" />
            </Array>
          </mxGeometry>
        </mxCell>
        <mxCell id="Au1_wK9jKBwFf4h1bWoh-5" value="" style="image;aspect=fixed;perimeter=ellipsePerimeter;html=1;align=center;shadow=0;dashed=0;spacingTop=3;image=img/lib/active_directory/user.svg;" parent="1" vertex="1">
          <mxGeometry x="180" y="262.5" width="18.5" height="50" as="geometry" />
        </mxCell>
        <mxCell id="Au1_wK9jKBwFf4h1bWoh-17" style="edgeStyle=orthogonalEdgeStyle;rounded=0;orthogonalLoop=1;jettySize=auto;html=1;" parent="1" source="Au1_wK9jKBwFf4h1bWoh-8" target="Au1_wK9jKBwFf4h1bWoh-16" edge="1">
          <mxGeometry relative="1" as="geometry" />
        </mxCell>
        <mxCell id="Au1_wK9jKBwFf4h1bWoh-8" value="" style="shape=image;verticalLabelPosition=bottom;labelBackgroundColor=default;verticalAlign=top;aspect=fixed;imageAspect=0;image=data:image/jpeg,/9j/4AAQSkZJRgABAQAAAQABAAD/2wCEAAkGBwgHBgkIBwgKCgkLDRYPDQwMDRsUFRAWIB0iIiAdHx8kKDQsJCYxJx8fLT0tMTU3Ojo6Iys/RD84QzQ5OjcBCgoKDQwNGg8PGjclHyU3Nzc3Nzc3Nzc3Nzc3Nzc3Nzc3Nzc3Nzc3Nzc3Nzc3Nzc3Nzc3Nzc3Nzc3Nzc3Nzc3N//AABEIAL4AyQMBIgACEQEDEQH/xAAcAAABBQEBAQAAAAAAAAAAAAADAgQFBgcBAAj/xABJEAABAgQCBAcNBgQGAgMAAAACAQMABBESBSIGEyEyMUFCUVJykQcUI1NhYnGBgpKhscEVJDNU0fBDc6LhFiU0RGPxk7Jkg4T/xAAbAQACAwEBAQAAAAAAAAAAAAAAAQIEBQMGB//EAC8RAAICAgAFAwIFBAMAAAAAAAABAgMEEQUSITFRE0FhIpEUMkJxsQYjwfAVJIH/2gAMAwEAAhEDEQA/AL3IBLXk2GYhh44hHuZShu2wLTxE1lLlQ4qUdQElcHuwiWCwycOC6woSZ35QHLAB5XL9yB2OBmNyCi2XIhLqZIiwGZCRvDmyiNYOu5DdSsehw20NlxlEWSDsM3s3HHR34Sj4gGco8ypHaUQYxygX23w7FYagnJh3WwIjoAJZ+rCTEgzQfzoAa3xBjFiULE7IAEFSGmDC1j1YHfAyd5MS5haFnnhuS57YPA6CGY4gxob0sO44U5udaDCgnmgblp7kCAaqyLplCSad3ujsgxDYBQIjJ21sMo8oomgGMw85eJbo3RzvlqHM22IM27xcmI+xyJoRNKueEkepuKO13YbuXGeSOxAO0etCDilmYxjjVoZY485CYHimCDowIs+aEikFRBiIDEGr3iGDG1YdtpRxoxvLLyoMLmcoBgwaG+Filh7uUYUiXwVHLAzjEGhjhpLAuOOm5AQXWhCVIYiMcKV8eWBI7Hm3L4g0M6I2HdBkMrIAZWHCxu9mIgLUR5ZQB1twM0FdXJCQevtG6BgLaW+OOwhU8NaEEFsd6GA3MrAjg3AEcmBzlCtZkyZvpDSAUreTPvFAzDVBk3oSZuciAuOEG+UdEIDTWmRHyR+MNu9z6UOBuzEH6Q01j3i4YD1t0jh4JCGWGbAWB50dQi3rY6kBwhFvRy0obS7795X2iPJhwLhX54QCluAIE47ZlgqrnugLiXhAAOUW+DBad0NlZ1QZLroWyfgckIYZDsPJA1mCvt6MJNM9sBZeb1zo/wBUJjHJTdmXd6UdV4eQW9DVVvOFd73hcHJ+UQaGPbCsyQoXrA86G7DhB1oKSDvcqItDCJn5XWhYHDQHhvtg2vEAiOhiyIo8gWeEugbbsJN4swmQ7sLQBhIuXBweyb0R7SkYXQtLjDdiSQgrjpX7vgo8brVmQfLAScvCI550gPlWxLQEwLlhwB4x3jhq9MCAb1sNSnG3WS8Jl80oYh5Ml92KwuTuxEd8H50IVcltxEP6wjWyvizhjLE0m9HkyHbAnLg3N4oU0WfPHQgLpYcKcQj3OTCDHJkg5JZb1YQAiOwM8EbHJA9+FCd+WABlME4FxdL5Qdh0TZGzk/OOzlpmPJt2lEdPYhLS53d8st9K40T6wwDTDxGdoe1HDbEJa6GEjick7dqptkuq6K/WOY5isthmG98zZFbdQRb2ka8NETjWiKvqhASgAIAJXcmCi9ktt3orOK6QvyhtN4fJd9iTaLrNYlEVeLhiOXSDSIzualJVjznHFWDTDZdqE0d0EQr4z97FcfPNMYlJMdUVrEPi2M4g0Yt/aE1M8N2pqO3ZsVaLVIg0SNNFsryK7qwoHb3s9oxjv2riTTxP/f27uVrFRe2m3siUktJsQAxL7QLMCf6sVVLqrVEJNqbKbYgSNWccEAuMrRHlFsSIF/SPDQe1YOE+W1fB7UWnDt9cVDGdIXMQlmBd1I6mZEyESIhcREWoqi8S1TjhnM6QPzBi+Ask6I2Ni2CCgD5OFU7YNbDei5/4x/L4bNOeyv6JCC0oxk/wsJt/mf8AcUY8XxYzyE57IlSOXYzMcpz3YZzc4ruy4uYtj7v5JjrOJ+kAKZxJ3/UY2yI/8dy/KKmshix75OD/ADDVIMzhcz/uJlv/AMsPmRzlfUu8l9w2kU04DNrU89N5kUmxEkrw04NtPVEDLzE3L3EclMW2+MNv4pSsT7eGCH+7Zzb3gyLg4KfGGE7hEo6esdxCbIi6LYonqqvBC5o+Tk82hfqPBjefD3JdudlnRmUV8deTqK2iLVKKsaB9qScZsxKS0pMi+D8wRCSLujxLXnixfb8t4tyGpJgs2t9mXecxyWlAYdO5wXK26kVKvZwQzc0rGXB1/wCz5ohEVW4qDsTbxrFKVrFjC37Ubb6tfokI+x5l07pjFCcHok3VOxVhvIpXuaseHZcu0GTM33TWP4TDN1tczqr6lonDAW+6ZMzGUMPZLzRfp80ivzmjzAAX+YPD5otDSIuVw9iXeIu+XHLSpbbZ9V54647WTZ6dfc5ZOJdi1+pYtL7mhyunvgX/ALQFuUEhoxaVxgtFRapSi7aLFff0lv8AxdJJ8v5LYikQZJKWWmN3WKB1kg/hN/ONVcLt92l/6ZX4yPhkgeM4e6f4mIzPnPTJInYkQDswQXXvs8f8JTX1kqcPliQSalg3BbH2K/SEuYiFlol7oxL/AIxa6zRH8W32iyNlXidmdUDWvIhVBEW1UlXipTbFqawPFjNpyUwmaG0aiJOGqIVKcezjWGeiWkMtg+PMTsxrNUIGhasdq1GiJT00jVZLSRnEJNqdlG3CacrbdsXYSovxSPJ8YzL8G3lrjzR8vts1sOlXx23p+CgBoxpa7yXh9pB/SDhoJpE7+K5b1plPosXpcYc5Et/V/aELiszyGB+MYEuN5suySL6wIIqcv3OJ7/cTcv7xL9IkQ7n2QRdxYhEfFt8/lVYmVn50+iPs/rHO+J8/4heyKfpFeXE86X6kv2Oiw617EM73O8Lzff5z2RH6osRUxoRhsoeSfmrbqkJCO2nFVKUrzxZ516bALtc52xU57EJm8r3yLrbfnHfGysub25hPHqS7HjWUkQ1bQsiI9IUVebbWsBXEmA/iMj1RBPkkRc4nfeYxG7zRRK+mnDDLvePS1T547Z4/JpddjhKTZNljDf5v3SX6QE8YbP8AjkXvL84iO9oWLET0iu4Q8j4sVY6LnupA1xceQ257yQ31Me1IwdCPLX4CljDnJY/q/tAjxN8/4Tfx/WPakY4TUPoNKvwKl1mZ64WhbuEa22+rnjmrmvyww4wNbHn/AOX9Uia75c6f9SRNIv1UwcSFXv38yXwj2qmT35lz3ljUR0T0cDfKcK3ezInHT0r6o61o3o5+UnPad/Rf3VOeK3oT+D3b4hV4ZlczLlqbtaRe0sV4t/2o0TTCQl5GbdakmybYJoDEVJVVKotdq+VIzx9M5dZYnjtwnrwLM1bUpLs0O1lxj2oGL1oJIYXN4LiE3iEkM2TJtoNxKlBJF5uKqc3NFj7xwcLrNF2yzKgkTaqmxVTbsqi0Svrj18smuL1yng3VLyZEjQwpWhsjamZORBm4dE5a650V+61REREsVdnAqqieiKl3UpOWl5zDXpSWblmnpVfBg1q9qFXaNEou3jgqyoWT5OXWyM6nGPNszCYSw41buaELujFviXzTtWv1jLJtPCRonckfvk8TluiYH2oqL8kjyn9T1bx5Pw0a/DJf3F8ov44ZMnuSzny+cFHB5vxHvEkTSPTNjWqHKQAt1vOi12+mkKLvnLmct2ckUKu2tfJWnbGDXwqhrq2zQeVZ8EQOCTfRb97+0LPBn2mScMm8oquWvF6okHknjArLhyjykRapw8fAtefiheqfO7WiVuqIN6vGqpx8yp2RKXDMflaUX+7I/ibPdoqeJh4EurGfYkmco0PEP9N7MZ7ie+UZXD+5fs7DRkMnbDvR/An8enHZaXcbbJtu/wAJWlKomyiLzwzbOy0fRFp7mmTSch6UsfwVF+ix6nF6rTPI8RgnmRT7NBw7meIcvEJceqBL+kHDuYucvFB9mW/UovGIN4gcyIyn4BDmK5EVF8nYnbHJKTmzB0nSeEnJZAzOrsPMiqiVWi7q1rF/04+CPo183LysqbfcvY5eKPey0KfVYKPcyw8N+emy9xPpE53ljJy+d0Re1ouVJ1aIiIp27K8srfQMFcwt2Yef10s3aT7bw6wkIt6ppVOKmxEXypwQ+SPgioQ9q/uQTfc7wblvzRe2KfJIy6bb1TzrfRMg7FVPpG74TJOSPfOtER1jqmJDbtRSVU4EReBU4VX1RiePt6rFZ4ejMuf+yxzsikuiOWTFRjFpa2xng6D347f0frExROl/SkRGEJ95f3d3lemJfVh5sJFyj8iNqfBx7D2HGpjve0akVtUoqccCwd0Jg3HGZ9ubG1UIRKtFrzcXBDLEEcm9DxYl/wAdyWG0bqKqVRF9UQWieEYjg+NgTojqHLmz1Z1RFRKpWG5NSS0bkKYyqnJy00+i8kT3VG7MYEulLD8FWMimk8MXWjaO6qIm9JPhmEmiS7iWi1+sY1Op4YutFd9LZGrV9WJE1LuHvZ8Qb6TTa9hEn1i+lh2Ld8kQYp4LW1ESu3KKltfQta86JGZdxJ2zG32+lLF8CRfrGwTjrrTJd76vW8kXK09dNsbFkm2mvdL+DysoalJeGyEkpN85xogxQXnZV0UmWxfIqUFUVFRVXbwLtpXbFV7tDeTCn/5gdtF+kOdGMZGU05xDDZ3CxkpyecucJuZVwVNEqlEVEoioqrWF92Vv/JJF3ozdO0V/SLGOnDIhv3K82pVMxCcTPFz7kjtmKzzHjJavul/eKbOJnixdzV7VaWyY+OE2+0VVPiiRS49Xz49i+N/YscPlqyLPoXDVvkGOr8tkcmsQlJQxbdctdLaI21/6geEmIYaJGVoiRXdqxDzeHvz2K64CFyWcNE1jZVsFOJebYnxjDeTZHFr9Jbk0i/GqLtlzvSRMy2Jy0w9qGrrvOGn7WH1Igp7DdTOFM3Nsy1yKWai+WkS0jNsTzOsl925U5lSnkjri32ycq70lJdvlELK4pKUO38FNnv8ATeysZ1iy+GKNJxZLNePnF81jNMX/ABj60eawY8tso+GasnuGyLEyvHrJFy0CKzS+V84HE/pVfpFNVM8WvQ07NKsKLpEqdoKn1j0+O1s8vxNaurl8mxJA5maYlA1k2+22PScJE7K8MN8XxAcMkHZs81u6POS7ESKRPtlieGlijuudd1aFrrlohXIhCg0oiIi868XljQbOeXmej9MVuWtlyDSDCTO37QZ9oqfFdkSIkJhcBCQlukO1F9Cxl8tJyzrMsJ67XzF1pNkiolCog20qvOtFrthWFYvM4JOEIFrGBNUcZuqJ0Wiqi8S+WFzFGrisk16sej90acSxh2mAWY9iY/8AyS+K1+sbZKzDc3LNTMuVzTg1EvJGN6eDZpJiH81F7RRYhb2Lec04Ra8kLgq+Gf6qfOJawfFxDYWud398cSdxdGI9jvjL+2jXQlsPLBGH8QIh1Im2LgkSKCKtOLnokV3CcMdl5x0sYKYl5EhUAcJxRQ0XiVU2pVOfbEhP6TMYPMu4bMSRPNXXjaScC7eBfLHHdOcLm2SYm5KY1ZbCHKuztiMpQ31fVHoa4ZCi+WLaf+9CO7pcm1KYPhrcv+E3VsOPZbs2+qMXxBPvJdaNh03x+QxjCmGpQXhcbdra4NNlqpw9kZFiSeGKOMmnY9GljwnHGSmtPb7lq7jz+q0taHxgOJ2iq/SNqnpkpeZHKO7Xj4q8372xgPc5m25HTDD35hwW2r1vcIqIiKKpVVXg4Y3KenJSd1RSWISbltbvvI8fNGrBc0Iv40eZyvpul9yp6RvTYd0iRKXEe9hclQdLVAqopktEqqVSqIvAvFEn3Wmr9EyLxcy2vbVPrE47IsTBuu2iTpTLL1wmK/h0onD5F7YZd0hnW6GYh5ogfYSLFiue7YdO2kU5R1CXyfO84meH+i7/AHppDhj/AEZkPitPrDGc34XKvC1aXKEkPs2/SJ8Rr51OPlNCxpcumfSsmDjuFTLbW9mQfWiQ1wF5iUB0piZFu7+GRU4OPtqnqh5gLlzJEHKtPtSG+L4EU3M6+XJsbhzCVeHnSnpjxVVdnoVXV/U49NG25R55Vyek+ux9iQy07J6s3BHWDVortlU2oqL6/jEbouw+09M35RtTLci7du3Z5KwSYwmZKXlBykTYWFm2eRUiRwuT70lrTtuIqlb2J8IsQjbdmRnOHKku/noQcowpcU97Kzj42TMyPnL8dv1jMMVT7yUappIH3x/zqL2ikZhigfeXYyKVy5Ni+f8AJeT3Uv2IflxYdGDs0gwov+cU7Vp9Yr5JniXwg9ViWHl0ZltfVckb1EvqRgcVj9EJeGjS+6CRfZst0SfzeoVp9YrMozO/c3ZfMwIlcRF4MEVVQ0JVoiJThRV49kX3SLDvtPCnZYPxRzt9ZOL1pVPXGbyTRHPtSxuExc6iFdyCrTgXjrRI0pdzz3EoOORzPs9aJOQm+8px0hctw/XuAFxXIa1RKcKVqipVVW3grWOaTNMAbD8vbq3qqLg0zUolK120psoiJSlKx1vE5ubxJ0XXyGWEjcNlwUKjaKqkKoiVVaJSnEvojjM9LSkg1qpl60SP7u2VpGqkuYqoqKiCgpx7YRW3FwcN9Cw6APkeFPsHusu5fQSV+aL2xQ+6ONmk855wtr/QifSNI0Tl7JB2b1Go76d1gt8wolE7dq+uM97qA26SF50s2vzT6Qp/lNaUWsOCfsVXDVs1pBDzWFDXDUyEXnQ8tHyxEu4/5EW/uhZMSaftK1xve51SKwL4xp2J4WxiYCM80JW1tIq7K81Iiy0Mwk/zA9Uq/NI4W40pSbR6zD4pVXVGE09oo7p+BKKpiSeGKNbmNBmLPu864PWBF+VIgnO5qyRkUxiDznmiCIkQqxpxfUsZHE8eUej2ZrJLZOD2fCJIhGNCZ0Bw9rcIbreUNVr6Yqkxonj7Jl/l7jg9JuhfJY9Vwm6FdThJ+543ibd1qnFexECZBuEQ9UqQbvqZMCE5l60t4daVF9KVoseew7EJf/UYfMD1miT40hspWb42xsKVT69DLamhhO78BLP5o8EGmyvPJmLoweTwTEJvcYtH/k2f3jFypxU3svUxbibdo1Nk9o9hz4uEN0sFxCSpwJT6RKhNTP5lz3or2hDDkvoxLSzxXEyRB6rlVPgsTnHHyLLttpyJwhJpJs9ZVGM602vYP37N+OL4fpCkxGd8b/SkN1jkcVxDKXab+5P0a3+lAMUMpi5x3etplGnBGbYtknHetGkT34MZ1jQ2TLsX+HWSlNyk9thOKUdIjW1G/kxKYi0MuGGTIfxgRwvSJqnypEJeIRKT72tkJMbrhbBUH10WPTY+229GBxRf9d/DTNgHSLBHTyYtIb35kE+axHYxheDYwevZxCVbmfGNugqH6URdvp4Yxusdyxoerv2MKzLVkeWyKaNTLA8dzC1NyDgkKprBpdtSirW2tVTYq1VYcYRoWLRi7ibgv27dS3W31qqVVPJRIyYSs3MvV2QcJ2bDcmZgeq6SfJYPUXgrw9BSUnFvRv0ZR3VxpjjB9KVT4EX6xAtY5i7W5ik+P/6T/WGmL4lN4haU9MuTJCNBJwqqicNIJWJrRcty42w5Eh1o7Id/Sb/hLbXPVwJEl9htfmBiM0dnilJZ2y3M5muGvNEt9sDzh7yxKK2jQxulaNWEfNjhL0BtgTj49KOI8PStjqWBapfvlb2wPU+71VhbZEd3R5MLy7ub9+mAAFBDoxxTzwdBHzetAKCfm5uVDA8rvQKBExLTGV1hkusKL84NTzbvaSBn0bri80YOdrsGkxsmDYe0fgpSXHo2tj9IX9ny3iG7eVlpHSccA/8AqvkjxudMrf38Yg22NI6xIywZZchHpZVp2wtZB3kWkXmlT5wMXBMxzXF++CHBOi0H4VxcohKMjJ4Vj5E3OS6v5LVeTOC0n0GjjD4b7ZD2L8lgd5b2b2hVIdK9fmO0fNur2wQJzPuiXVGKE/6epf5ZNHdZsvdENiMy2EsRGQ29aM7xJX8QmSKUYImulatO3jjXznL9xq72U+cNjd1ockR6PCq/usWcLg8KHuUtkbcxyWktGTS+BOnmmBuLztidkPJ7DCl5DWhuiXz2fpGniEse+XyhE/Ky03JvyV1pPCoXWotKpG0oJLSM2+Lsg4+TFFWOosWqc0AnmvwpmXczcq4F+SxGu6GY21uyms/luivzWOfIzBeLYu6ZEVjsOXsCxaX/ABZGaH/6lX5Q0cZea/FG3rDb84jo5Sqce51VgMwuSFKpQJ88kCCEeoaSe1UsWblR3v8Aa873YHhksU8er5IlUvokWDvAvFRZhHob1C1BGq0s6Ps7V+MLvHo2+cXD2ccN0mM9zVubeLbTtjqvi7ub3Z2ccSO44Qys3h+X1jl1/JzQFFE99zL1vlCScs/C97n9HPAAdQIOVl6P6JCVt80RHpQPW3hkzFyi5ob0Iz6XV4EqvxWEMe3XgXR5MCG0Lt4i6WxKdsNiOy68so7PBjRfWqQ3emWADwQ7xcolTsSEBIWOXl4Qd3LcVVXZXijlhZd1zziL5/vigDTzZhc773yg2uHdy2+bsVf7whnTu5G96uD980d1RZdaXVzQthWgO50ur64W883ZkK3zv+4iMCUv53ujHnLrN0h86Eq7Zm1pEUeTPmd/9aQgOEYhvll6McVBPMFtvwT1wTVtmG7l86BkPKt8lsMDzYubx3F2L2bIOLtmY8tvS2QBXyALbvZKAE+R7+a3zdiejyxJCHSOkZ3Zbe2DKIu5jy+0sMBdbPc3vlBKPgG95PV6oYh827ZluGFK7eFurEvZRU+MRStP9Lmy3QVkSv8AxP6tnr2wC0jr2FyUxlmMPki84mB+aQynNE9Hz38Nb9kjT4IsShKQdG3pQjXDvcq7kltg0iLri/YYyejGEygWy8s23x23L69qw8+yJHxYwsnRvtu92OXF4ookSLpqm/Fj7qR7VN+LH3UgkejmAPVN+LH3Uj2qb6A9iQSPQAD1Tfix91I5q2x5Ij6kgscVIAIocWww5jUa1nM0jgkVLTFbuBePdVfRHJnFcJlz1brjdwjXKFaJVE4k5yTthLWj0kAE14QhKiFmRNiKSoiIiIiJmXYiJHkwGXzeHmLzrUqjVVy0XgpssGmzi21gAOWIYWC2lMyo2lbvJvbdnwXsXmWEJiuFXkOuZygJ7uyhKqJTZtVVFdkJawKUZd1o3XawjHd2KSEi8W1M68NezZCAwKVYt1bswBDbaQkNRVCNUVEpTlmlKUotKbEoAHdxLDWjAdayVxW3CqKgJapVVeBEolfWnPBXpuQaOx1xkSs1lpU3du1fJsXsWGf+G5DvcJWjnewkhizdsE0GlyLw14+Hh2wZ3CWnTeM337jQRLaO20lIV4OEVXZ8awAePFcJC2+clRy13k4P2i9i8yw8eVtpozRm60a2gKKS+RE54jF0ekHGjQ9aSO3EZKe0lITQlXyqjhfDmiQfk23W3xFSZJ0EAnWaC5RK0204q7OaqwAMG8XlT1P3R4dcRAngx2GKkijsXatQXdqnAtaKkdbxmQNWhMdW466TSNuW1qKVXgVUVE2cCrtWnDshY4MyosCT8wQsbg3CKcdFS1EoqItNlK0StYF9gyTgoRE8Smak4pKlXcwrRdmxKgPBTg8qwAcTG5DU602XBuJsRbJpLjQ90kRFXYu1dtKUWtKR08XlRedY7yfJ8SQUbEBqdUJapt2bAVaLReDZtSvf8OYcoUebJ4qCAm4tSEBpQUXmSieVeNVhR4JLE8r6vTOvWlrt6XAiISWotOYi2rVdqbdiUAEt4thzwvnKCkxqRAiRlBrnSqcKpTYqKqrREReHhiQlDYmpZqZabyvAhjcFFoqVSqQxawKVZoMu4+ygiqNI2SUaRVRSREVFqiqiVQqp6IkJOWblZVqWZTwbIoA3bdiJAATVN9AexI9qm/FD7qQSPQAD1TfQHsSPapvxY+6kEj0AA9U34sfdSPapvoD2JBI9AB//2Q==;" parent="1" vertex="1">
          <mxGeometry x="370" y="455.5" width="141" height="133.28" as="geometry" />
        </mxCell>
        <mxCell id="Au1_wK9jKBwFf4h1bWoh-10" value="" style="endArrow=none;html=1;rounded=0;" parent="1" edge="1">
          <mxGeometry width="50" height="50" relative="1" as="geometry">
            <mxPoint x="130" y="400" as="sourcePoint" />
            <mxPoint x="830" y="400" as="targetPoint" />
          </mxGeometry>
        </mxCell>
        <mxCell id="Au1_wK9jKBwFf4h1bWoh-12" value="actualmente" style="text;html=1;align=center;verticalAlign=middle;whiteSpace=wrap;rounded=0;" parent="1" vertex="1">
          <mxGeometry x="1070" y="300" width="60" height="30" as="geometry" />
        </mxCell>
        <mxCell id="Au1_wK9jKBwFf4h1bWoh-13" value="idea" style="text;html=1;align=center;verticalAlign=middle;whiteSpace=wrap;rounded=0;" parent="1" vertex="1">
          <mxGeometry x="1060" y="500" width="60" height="30" as="geometry" />
        </mxCell>
        <mxCell id="Au1_wK9jKBwFf4h1bWoh-14" value="" style="html=1;verticalLabelPosition=bottom;align=center;labelBackgroundColor=#ffffff;verticalAlign=top;strokeWidth=2;strokeColor=#0080F0;shadow=0;dashed=0;shape=mxgraph.ios7.icons.home;" parent="1" vertex="1">
          <mxGeometry x="320" y="230" width="24" height="25.5" as="geometry" />
        </mxCell>
        <mxCell id="Au1_wK9jKBwFf4h1bWoh-15" value="" style="html=1;verticalLabelPosition=bottom;align=center;labelBackgroundColor=#ffffff;verticalAlign=top;strokeWidth=2;strokeColor=#0080F0;shadow=0;dashed=0;shape=mxgraph.ios7.icons.home;" parent="1" vertex="1">
          <mxGeometry x="320" y="430" width="24" height="25.5" as="geometry" />
        </mxCell>
        <mxCell id="Au1_wK9jKBwFf4h1bWoh-18" style="edgeStyle=orthogonalEdgeStyle;rounded=0;orthogonalLoop=1;jettySize=auto;html=1;" parent="1" source="Au1_wK9jKBwFf4h1bWoh-16" target="Au1_wK9jKBwFf4h1bWoh-2" edge="1">
          <mxGeometry relative="1" as="geometry" />
        </mxCell>
        <mxCell id="Au1_wK9jKBwFf4h1bWoh-16" value="" style="shape=image;verticalLabelPosition=bottom;labelBackgroundColor=default;verticalAlign=top;aspect=fixed;imageAspect=0;image=data:image/jpeg,/9j/4AAQSkZJRgABAQAAAQABAAD/2wCEAAkGBwgHBgkIBwgKCgkLDRYPDQwMDRsUFRAWIB0iIiAdHx8kKDQsJCYxJx8fLT0tMTU3Ojo6Iys/RD84QzQ5OjcBCgoKDQwNGg8PGjclHyU3Nzc3Nzc3Nzc3Nzc3Nzc3Nzc3Nzc3Nzc3Nzc3Nzc3Nzc3Nzc3Nzc3Nzc3Nzc3Nzc3N//AABEIAJQBAwMBIgACEQEDEQH/xAAcAAABBQEBAQAAAAAAAAAAAAAFAAMEBgcBAgj/xABIEAACAQMDAQUFBQUEBwcFAAABAgMABBEFEiExBhMiQVEUYXGBoSMykbHBBxVCUtFyguHwFiQzYqKy8SVDU3OSwtI0NWOEs//EABoBAAIDAQEAAAAAAAAAAAAAAAMEAAECBQb/xAAlEQACAgEEAQUBAQEAAAAAAAAAAQIRAwQSITETBSJBUWEysRT/2gAMAwEAAhEDEQA/ANrpUqVaIdrLdbvLqPtfaiB3SE3ZEpXpjnGfnitRrK9ULvroDbNhvc+fk1KaqVJAcz4HuxlpNJY9oLS7k9oW6uJH8f8AvLtwR8Vp4dlE2AezMeMeG4kQH5c167MXEaXdzbqcuQZDjy8ZHX5n8KPRapFhgyTKFOCTESPpSySnFOYNfoNj0SW3t0jit2Xbx4ZA3Hpg4/OvbWBHJt7pf7qt+RooNUsvOcL/AGlI/MU6l9aOcLdwH3CRatY4Piy6ADWiA5zKn9uFv6Uk+zP2d8qH/wAwr/SrOr7hlTkeoNcYA9QD8RV+L6ZKAUdxqKcx6gWHn9vux+NOQaxqrrujmEwzjOxSPoKJyW0DjxQRnnrsFQb42NqS9zH4CPIkY8vKqqcfktKT4R6HaHUY/wDaW0bAdTtI/WnU7Ut0ktMD1V/8Kh2cum3z7baScH3MRjr6/A1KbTF5xcSZ/wB4A1pTzfDst748SJSdp7Y8PDMo9eD+tMah2xsLNEKrLIWPIxjA9ajy6SzjHfRkMMHMePyoZqHZ1rnuwV+6OHRyCfxq/PlXaJvkG9M7b6PqF2LVGkSU9O8GBVlBzzWUT9knRTIizIyeIHcp6HPXFXTsvqcklqsV1kSJhG3eVbx6m5VI0sluix0q6BilinApylXcUsVCHKVdxXcVCHK7iu4pVRDldxXaVQhykK7SqEFSqPf3MVpayTzyrEiqcu3QVkMnb7Wn1J4LW9hMcj4jklAVRz6+VZbohs1Ksri7Xawyt3+uaXbyK7K0TITtIYjqOo4yPdSqyGnUq5Xa2Q8yMERmY4UDJNZXPcQvqqOZU7vv9/yzWlaxkaXO6gZjTeFJxnbz1rMz2OjeHS53u90U7K7OeAVbxbD7s8fjSuojuoFkjZH7I97Jrd7ec9y4kWNs8MSy/TCr8y1WKWbvWdRIDslJGF2leeOf8+YodY2zWmrbcJ7PKzrEYTlDhST8AMYqvalcSJruoRqz8SLgnrjYDx7uaQySafAJp3RfP3hKPvIh9Tgj+lcN1G3+0tY2+v55qhpqM69J3z1xur3Hrdzv297+PND8syVNF2/7PJy9kAfUbf6U4klmOEe7i/suw/J/0qq22o3cid4Z1ODjBFek1e4PlGflUeVx7Rm2i198q8x6ldIfIu2R9UNBNcv4pnNpLqkDN4dwaWONhzkYzgefpUQau3IaFTkY++aA6tpdtqU5uCCkh64FV54viRqOTa7TosWhvNYX0apPbyic7IsMsn3VY/wMfIk/LpVsF7eY/wDo42HmQZF/OOs30CwtNJuGmBZpGXbuK9B5j6VZotVtQB42U/2TxW45oxXDNSzObuTLF+8XU4kspP7k0R+hYH6V7GoIR4oLpB/5Jb/lzQWPVoTwt4R8SakpqCk5W5Vj7yDRVmX2Z3BE6jZlSryFM/8AioyfmBUFbm2hui8d1EyOQGCyA8fI04t6x/7xD+H6U1PGJ5RK+Sdu0qGyD78GqlLcRlns76ORkt2f7baTgKcED39PlnNEKregzxPehDjvEUqOelWOujhnvhYxB2jtKuZpZopo7Xa85ruaoh2u1ylUIdpVwUj0qEPLsQrEAkgZwK8xvvjVnUruHQ9RXk478DJBxnpwarfbPULrSLBns0LJtLyMGwwAIyfd1qpOlZVlJ/azr091q8Oj2/eJDAcsQp+0cgdPUAH61UGSK0CXN1JLNeK4kNusJKbeDv3Y4ORjp86f1X2i6uG1FJ5DIviEuTnk9RjoaUOozSiO2ubibbGfs887Rxjnr1oUcsXG2QK2WhXWoWsd3p1xqUNrMN0ccQ71VHpuGM85pUOSe9jQJBdyQxqMKiq6gD4Lx78+fWlV/wDVEo3+lmvVecUc0Ddfnhh0ic3K7oXXu3B8w3h/Wsfj7R38HZ2FlPfWazysmW24Usdo949K1Ptq6L2cuneRUVQG3McAYNY5pzRyzWlrZ38skSyALFHBiFec4YnqP71J6qVNJAckqLdqmopZWek3saOyCeQ7EIAIKNkfDz+VDDZLrc8l/CJEDsAQwU5IAGRRue2nGgWSi3tLmaIuztPuCKuHyRtPpwOvWq/Jrk1pPJEthCpiVWbuL90UZ5HBUj6UnNXwCZJPZ2XbgSZ9xjpn/R+4Rs74j7iGH60wO3Ox2SWO8UocHZPE4/4ov1qTF25tjjwXpP8AvQxN+TLQtj+yc/ZxdLvolKoY9pPQGp9toVysSjeoOB1Ga8xdtLRo+8cTKg6sbE4/EOaej7a6O3WcAnzaGUfkpqbG/wCiV9jcuk3EQHKnPuxTQ068K7liyPXdRWDXbDUswWtxFK7D7qlyfqooNqWrT2cpa+leJMeGPbxtHnhR9aWyQalUR/Q+nLUpuTpI5Ja3MfDQPu9OK41vOoyYJAPhn8qM9n9UjvYXd2YJwEWQckfA80XAiIGB/wAFEWC1yxPPp1iyOCd0USVnVyCjAbf5SK8yPIvJVwB6qaut3p1nd/7dEb3FR+VRD2esiNsaRL/ZXb+VaUXFVQNcFRjvJBJjeRkZ4NPnUZ1UETSD4n4VZD2ajCnbI3P/AOZ+PrUG67Nd0O879x8wc/iM/Wo0zW5fQ92N1EzXkkhYlogOf5uea0yyvIb2ETQlsZxhlwQfhWV6bCNOnWVd5TDbgDnPFXDs52ti1OaK2FrNHkYEzrhXYYyB7xkfjTujypKmbxS+Gi2VylketLNdMOLNdzXke7FQZdYsYZZI3nIkiOHARvD+FQgQzSB5oHN2gtc4S5gGfJicn5Gh95fi7eWP27MYxtw5QHgelSiFtLY68VzdWeag+pJaXDaXeTe1JFviTv2IZvQ5ao+ja527HdfvFdGCbkVxO5LgNjBGwnpznNSiGlMygc0G7T2SX+lzxPv8J3ZUkZwM/Mfj0p+21NTbrJcPCZCxU9xkqcelAG7R6bJaSx6iGjJJ5hQjJ5Gep+tZl0QzC6llgvSA6K0ZIYK+en502L22KF5SkbY3IxGV3Zzj3c+dRdUSGOScW1w8katiFpF8QX344591D95gCIGHeMM/DnyzxSe2mZosB1bk/axv/vNwT8eaVADMZDvaUoTzju1P6GlV+MlH09kUs4ryOelIsAM5p00Au2FlBqeg3VncLvidQSnryKyzsu6tp1vFEoVUk/8AfWtdo5e70a5kxghT/n6Vj/ZTIsLc4zlx/wA1c/Wy5QDMy8yNv0Vw3QrJGce/P9azvtVp8g7Q20awS/u54Mzug4Qjdgk1YtWuJ11jTrVbqaOCZpAyRsVB4Y/jwKH6x3vtktvJNPLBtB2yOcHIpfek9zB7kiot2gFv9lp+hWskCeEPKC7N7yc023aZf++7PWefcGH615u9KubB9lkss9sSSBGpZl9xA/OuaRCs2tWUNzvjzMpdZBt8IOec+XFNLxNWEilJmnaz2wk0LQ7KzeyWRp7dYhbImQG29PfQe30K+1VRc3mipDIwG5WvBGen8oBAorqNxY3EtvdhYXnQlxNITgeuPKvbai6QAFt0r8nAwAKUzZU3VHcj6eppbiCmjPpsMg02e4triTqI3Egx78iqvq0Vzp8ntGoTvO0x2GWTr/hV5tJT3YkdwTjpXbh7K5t2g1CCOSGTwlSMg0GGZxfKHFpYY4bIIz17jRL/AGPc6i8c4XawEO5T1wfwpRxaQpzB2hhjPviZa89puzltplxHJYgtaz5CZPiiYfw+/wBc+41VZLeQMVMbHnyFOKEZ82ec1GOUcjU+y7R5Azb9q4s+Q9okX9alRS6zwIe0ds//AO7n8xWepaAeIqy+40zdQvHIrxHBI458xW/Am+wW01JLrtTH9zU4ZPcJYz+Yo3oj9oL2GaTUNWsLRYSo2SxLI754U4U9M1kPaf7W+W9h3It3BHMB6EjBH0+teNNurmPaYZJAwx654ORUeDby3aNKMV2axNfa9DdTw3VraTpCfDLHbsVceoweOtHtNbUf3SbmOPThBbN35j2sjcg5xnzIyOaDdj7qXtLGbTUC9uuwYmUgFz0G0+Rojeaa9ssf7v1BjAH7q4752+2QgggdRnPwoMowg++GbjppSd4+S16p2litbMG2aOS4Kq3jJ2qDnDH44oFP2tmu9O7tnEMrjBdATt+FV/tRHfLYK1gW7lWKd2yZJUHK+ec8kfIVV9P1Of22KO4XulBG/aOc+nNGeR5IpwlydDBCOON5YFs0ntfq476EBNzuQHeU7TjAwBzgnOfSi19eTXGnx3M42zSjLxL1Bzjr8qgy6vop3b4+4mWLG2MkZbnk+YPrn0FcU97Zyy2njEg+zJJYfLP9KchkjJcCb/BsQrJaCZEZ3zjOenn1qLJdJ3iujNux4kPINcBukkRC0gxwAG8/nXkwM8573qAMcjNFKF37rIrwXMnj4Ibqvwp/2llUD2h9+PEfMfCm7GIzS92qoMZIJ9fjThhnimYSR7uOCF4NQg5a3t05Cx3WPMY/pXmWBziaSVMq3hDrndn1rsVi+8yiIjPGcHivd7p6+wFpJGkMjBlYAgrg9KlWQjSxrIQkltaNwNxZelMNBpxnEradG2PCWDHgH3V67zZE3hO4DBycV4Vh3njV9vXise18FDDWGnbjiwYc/wA1KnA4cblfAPkQc0qvZEhp2vdptP0hlt57lUuJCiJ3gO0M2cbseuK8+168mtQ288EDacyeKVEOQw685PHTHHrWTftM0uS4/aDLes43JNaxRITyRhST+JNbTqweOyGMghgMirM2Re05WbRrlVIzjp8qyLsmSdLsj5sEb8SK0XUrhm0q6z1CE/His20JrhNF01IdndqY2IxgknAzn9K52uXKBZg3qm2btTbBYci0geXdkjcSduP+Kg3apNYW50hopyu+yCzMvTcrEf5+VWCST/WIJGH2k2Iif7zH9Krf7Q7y9VbEWBZZIe9VwPQkEfWgY3fANAtdU16MF3vZEBJ7sk5JFRb2a4vphLey97Ko7sP045wPqaH3EuoT21uA+cDLbvInrXO61IMe7eNlB4J4OK24fqNU/sMQtdbraLKyIhCiMjgjPT61cJN2SXUKwGDtHHp/Ws9tv3v7TEQiOwkXADH1FapeafcPIO77qZGAJVGAYfjigzi+1ydv03VWmskgU1x3cPwHlQq9vHjhkYH7o3j4/wCcUYv9MuYG3GG4aJuPs4ixH4A0BvrG4jR3IPddHJ8PHz86yq+TseSDVpnnWY/atEIJyVZGB9OoP0Y1WDZkfw1Y4dXCabL3Fv3quNpRzg4PnQNtU7vHe27r8UPNFipo876m081x+iK1qccHFRriHu4jnxciiJ1W2bkqPmKZmvreb7NQPEQOPKtx33yc7kat44r/AE6ySZmRbe6aGVx/DG3iz+OR8qP6dpHZu3l7yPVTOueIpo9oB9+Ovw/6VB0+CxtoboXPCSuNynocZ2n5ZNQpYbe2kjMEpcOTn45omXJv4XBpuy+RajFaMs0F5CwGPCrY4HlirVbeEJLwSiYBPUZ5NZnoGnrqWrWdux2o0wywHQDrWpXNvJZzSRSLgAcH+YeRFczUQcYpnW9HaW6LHLdYlsokkVWCoASarHaLR7V3Gowblx9/uwN2fI5PlU7V52cQ2kcvdtKSxHntHU1Cv+8k0278T42YTJ8vWpg3RkjrZsSeN2AXtdNCFpJ5WcjO4plT7+evzo5oOqxmBbNLiNkQYyIyjA58xgDHwqFY6eby20eCc4ViUdkPiOSx+XSi2l6NFBJDcrbQ93K2Ml2LEY/Ac134QUTztomtB9okxJLRtuGT1zSe0AuN6YZiecjIGaf9nvstGJ4NrEgOY8sqny99PadNObG2eQgkxqSfUkdaJZmiDZ2c/f57vJTI6jIP6U8dJn7wtsjTvDlAX9OuKm2Q/wC2dRwQACvl7hUjU4TJHFcx4Mtq5lQZwCMEFT8QT88VZCAdJkLIkk0YZcttB6Z86cfTY0tO7llyMjDY8yRjHzIqTYSxy2xvyCTcEYHmq9FXHr/Whd/NKbOF4syTROzCMjgnb4Qf/V+NR9EoEWF051NYnkk7suYyFbqPf61ZzZWYZsQKxI6uM0Gu7aO3vLDYMb2cjjyBFWG12tESeTWIxog2trCQPsYR7hGKVSlHhFcrVMgXMmk6vINssE8kLkbo5PEpHoQab1K2i7lDEgMpkGX5LHrxnqayN7a9sLm4+0RMIndmN+eQD9KuPZzWNSuIZop51buXVVcLhhxnn/pWY5EzIQ1qKS20q7My7cwOwz8DVA0IbdJsx5/ZD8qtfaW6WHRL4O5aaaKXYvUkhT/h+NVjSVxp9qvn9mBSGufuiAzdE7W5/ZtX0iMg7O8kkcD3BgPzqo9vbgTX1o0e9V2scE4P8I8vhVm1Tdc3um3P3lEUhJA65bFAdW0eTV7uKSOdIlhGxg6nPkTSsJKM1fQNf0V23v8AuF2bFbzywJ+tPpq2057uL5hqi6zphsNRmgBymcqd2eKh9yfIkfOmHGD5C0i06Lqyy6paR93GrNIMMMjB6g1okl9byqRdrJHOhzvWQeIn3EYH41lXZKKJe0Fo9xIAiEt4jgZxxV71KeJpw6uVZfuv1A9R8KFPdjl7Dr+nafHkxveGF1mK1dds06A8+IIAPh4+flUTtLrCXOn9yNUCpIw7wSo4IXzwGGCfTnrQN/ZW3LGVQnl1Cb0JrxNbQT2UgSR2whxHjI6e+tLNP5G5en40t0XRWNMlSBQ07O0WCAAo8R4+Hu9etS2ubJlxmX/0D+tV6R5ZI0QtxGCFXyXOM4/CvBEn81blBSd2cDLU5P8ACws9gw+8+fQxf0NRZUsydwK9MY2EGgrCUedeQ8iuCx491UsX6C2BO8kt9vczKzA4+7UDvklukhiUiONVxnrnnP6UxdT7cnkk9K5pGWnR253q4+Y5/SjRx1Bs3GJp37OEEV+94UDhE7vB893X54rQ7/2a5tY4biV3tW5juYRnu8eTe73fOqZ2LhEGh96cZmct8ugopLevYxsbeSNxIMPE/Ib3/GudHPtm4SVpnb0+jbwRnB1IH+y47Sqby8SaBoSga3wT1yMg4x9aP3umWcdiVhNxtbALvt24PuFVNL597XFpamG5UFu8RwwXjnqKjaZr95LcyNf395cL3ZHdGTwE+8DrwKdw4sUqcVYPNPVLjI6DthE0WpWEbKE2uuenHLYHHuIzU6wfdp1jznkD866Yyl9Y4AKmRfEORyev5fjUOxkC6VZsP4T/AFrocfAggheXscFpLcqd6R5yQCRx1oJo/aWO9ultFtkhgwBCylsnA/iBHH40Qj7iK2ktLobopgwOPMHrn5mvUEWnwyAxKqYHGOlIZtVCGRHT0+lnLE7XYQtf/vOojPO5P+Wpl1bNMI4t+2DfumX+cAHw/DOM+6hsFxDFqMkofmcDjrjHFEZrjwnAY8elO4s0cquLEM2GeJ1NDc8DRLO1rgxzePazYUN6jA8+Krxvmt7lFCEFQN+AT1HJ6eoHNGoXZNPt1SNiBCgUY9woZcNdd9Jttm+6B0Hv60QGP6vg3OjsCrBt+Dnr0opA5VCAMUE1OQpFozSoVbe4wB8KK96NpCqx49KhCUsp2jpSoW12I2KO8asOoMgFKrsohP2RncSrHOX3DAZk5Hw5qDYa3p+m2T7xce0IXa7ZkLYKkL1ztzjyBrRNoByWOBWFdqTNJqIto55UiLSMUDEK26QnJHnWVjUeivkttxrFprkF1NYNM91bQywBNm1T3gA9cE5T8MV40+J7LRNsqhZHURKP5WxnOaqmmz6bp+nT20vtfe7w3fKzMRkgDpwB935mjOmTxxaVNE0lxcOLxCqu/jII8s9flXN1SlKQvltsIXqyrpMCP4XSNfEvGPEaEtcey28LElmfLtk9ctRnUVmmuJ7O2hLLb7Rgkl2ByfhxmqzroeCS3gdSpVQGVuDSaXNMEDNcTZqEu4KDnnBGOeag7SRwhPwoj2lv7+HV7hLKQx4VWdssScqOMdKiR9opIji6e2ZG4dI4sgfPr9a6EMDcUxmONNdkK9BSBvAcgjqOKipqFzEcwzyRkeQc4otfazFqFgbW2iaOFeMOB9DVfuPAwPp9adx4lGNPk3C49MJJrmpRgbbxyTzyBxT1v2g1NrmMG6bDOAxAGcGghP1r3C2CG9GFW8UPoI82Sq3MN4BGTwDzkjGa8nGM0KF/NHcK6uxRT9xjlcfOjrM9yd0Gm74z0cTgA+8+Hik5YGmCjivmyKxXpkUxNgKTyaekvbQuY/ZpDt4LKVZc/HHNcZrK5iWO3DpIT9/uwflVxxMt4l9ga5Yu4APFT9JICAngpICPgR/gaZu4Aly6q+7aOeMU7poBeRD/ACZHxGaYa9u0uuDV7eY21lBEhwixqD+FQbmZXLKVLN7zyPnVI0/tTdWLPBMhntmfcqE4aMnrtPp7qODtDpdyoHtBicfwyrsI+fT61yp6SUXdHo9PrMMoJXTouPZ4GWJhIgWQ5Rg3mCPKq/2ds7j26aEAZhbDBhz0YD4UV7I39hNeMsdzC6xRmRip4Tr5+6rNe6jHqeklbSULdgBTcsmTt6Zz1pvT+2k+zn6uTnOTjyhuN0jl0yK3jYqZIx4+BGoz5eucCmdOgeTRLUAZPerjy8zUh2Pt2mykMFdlBBHRiVyPqPwpvTMzaDCqkDLYGRnBycGnDnpgrVUu4LpVuI0VZFZlZJQ3QjqKitK2xR9aXZe4udV1LUY+0pid7PEKciADk5+7jOfDViJ0KKMeCxwp5zuk+pzXIyYKm7Z3cGvfjScW3+Iq9tKw1CBGuWhj3+OULnaKvCvAHEUVwJHCbmVnUuAehKjoPiKExXui+1LHELVTNlV7uEruXzGcc0H/AGdQSLb6hezjZ384jjBHJCZyfxYj5U3pYKPTENbnnllyqX6W+xz+7oOeRGOflTccuLtwyggquT8zXmxf/Uhz03KPkxFeFINyDn+HBHr1p454K7VTLCtix6C5IXn1AotH0ByelVvtkyyizaJshJiDzx0z/n4UX0y/S6iydisBzjOMfMVm+SEmbT7WeQyywIzt1JHWlTwmjAw7qreYNKt0iBu4Zjby90AW2MRn4Vi+sdp4u0Fhp5a07q7hjLyHqGBXAwevyNa5qV2tpZSzudqqOT8eP1rKde7LpoN0ptZu+tJID3YOCyhR0Pr8a0UD9Ns2urObG5sv3ziMclY2AA/E5rxpryC/gcA+0iQLvkUZ5OM/I0x7dcaZp4mhkKd54WOP4fCx+oFWHTrMy6hZT7Btd0kyD5dc0jqrUkwWa7Hdc1e40mRria4UqzlAAvizjk5+VV7Ubl9Tnt7lA5DpktjPOPWjHbKNZrVA3H2kjHjOMAf41W5tSsorc20U+GCqF2jj30lCKkrS5BJWF5beSa/bUbaZQXUDuXiYg4AFDpdDTc0kssYZjkoEIqfa9pbCKx9lk3MrKBuxznFM2faK0gt5Ld2luY3OQZMbkzwcH5/SnI5JpUHXC5K/qSx2rmONgQvXA6mhDqXTgkknge+p984luHZmJGcKWOTijv7O9NS77QC4lBKWo3DPm5Bx9Ax+Qpxuo2zcVbKxd2z2k/cycnaGBwRkEe/5j5V5jwOvTNXr9p+kSC5t9TQZh7sQPjja2WIz7jkj5CqQiMuSFJHnmri7VkaoI2uhNdIsi3cK96gYI2R9adHZW5UKrXdmgYeUhOfpRvTLPtGmjQXdmto8Aj3RIW+0KeuMY+tErS012a2hkv8AUrKwnmyILeWIFm4z6jB92DScsmSwe92VmLslcyMUhvYWf+WNGaunsrc2zFJbpA2cEYYYNbbokezSbdXRRKi7X8IySOpqndu7+30jVou+DhbiLcpC5BIOD/7fxqpZclWuQs04x3IzyTQJYyS13Ao95JNerfRxDKj/ALxtOc+EsR5f40ZbtJYMOUkP92pnZ6ez17VBp9vaykMpacqMYjHU/kOOeaxDNkk+UCWRtlAmX7UHjrzSHXOBVt7adkbfQE9rtLqV4mcJ3MmCVz08Xp8aqSnru6+QHU/Kn4yTRvvotPZ9Wg0m9uI4RKI497FugGcc++tP7NWsUOkQOM5kGZMnO7I6UDfTE0j9nNzaOqid7dpJ8fzHnGfPA4ono9wY9FtWbIAQcnP40pUY5LZcZTjxfASuJWafTkKkbLhCBnk5Zc/WoWmPJHosYQA4c+eMeKhtxqZ9uilL+BGVtmOuDnPHwx8jTFtqTQ2bQtJg43LuX73Of0rayxZHJHdaspLTWDeySZW4P3f5OPdXUlEZO7gHnmgPabVp5LGZkkKTIAQABjr9KpEupahIrM11OR1PjwKWlpnmbkmdfT+pY8eNR28mj3b+1fYQgqznCnpg+tWTRFmsdNht76676ZTksfTPFZl2GluZ72WV5pWwAi+LkN1861KS7tobKPLcSHCu588ZOc+nH40bDh8XyLavWLPVKhu31KKNe6ySwLkgeXiNduLzuxK8LAt3YI+GefpQG8ut8lwtqqSu7HBXI2nGc/CmIJcxOMrvC7dwHUjy+FEeQQbJPaOSGTR7HJAY3TN09QTUvSrsuGkOPu8CqzeXXfLHGrOyq2QrEdemefdTtted3hEbaxOGAORg+dD8vJLLx7VGwy3dEmlVKfVJGY7bedgPCCCuDjj9KVF8pe40TtJ3UuhXXekhVTfwcEYOf0rJdF1Oe8OrRXEhktrK2ka33clAx6Z+dahe/wCs28sMpykiFW+FZrqOgr2Z0zU5Fumm9sjEK7gARg7qYZYxqNnPNp+lQQKWluXdIwvmcoP1q0WqDTLvT9OtmjnuGCxOx6IFGcD555oH2pkNpYaB3U3dOkEk4ce+XA//AJmm9Nuohquj94/eS3G+Vpg3JPkPh1pbUK0DmrJnaeYMZY8/cjc5x51T3aJHZio3ebAZ681e9V7S2VpO1q8M0U6PksYgQ4+B8qYve2mkXECiOzlhuF6vHGuG+IpbBBxRWKFc2U0XFsyAnnjoEpaTp4vp0QSbA06QjwklmfJwOPRSat7duNKa3RZNOcyIeXVFXPyoXqPaq3eaC406EwTW7d4jkAbZMMoOPPrRm5X0Eyzcmk0Xe6/Zh2fLMVudRXP3Q0in9Krxs4OyPbBdP09rmW3liUSvNyFkGSMY92R86ED9pHaXciG+jIz994ATjPU/Cii39pq4uprq9hm1AndHKrFN+OQCPLpW5qS7/wBKi2nZae1mjvreiGzglSOWR0ZXf7uQwOOP881R2/Zp2hEgSRrRYSfFN7QDtHmcdanQ9pzo2nRPNDO0ne7Bbyuc+ucn4dalXP7UFux3Fno8u6Ud2BJIOWPHGKrG57eEam7Y5p/dNaR6hYWK3T2sPdWmZsbVAxsI6bsg5yPSntKtItV9m17U7Z4rpYyEV2O0c9QD086Ddm5b8a1NYtp1xaW8vjkEg4jbHUeuRx+FWbUe9uIWt44VMicpC7YDjywRyKUnJxdCr7JfYjX11i61a22GIRygw5BBKEYz+I+tDv2s6b7Rplnd7CzW8xUhVyQGH9QtOaDBfW+pe3z20ECd0UKJKWLZxjPHFGtSukubeRbv7JMZyfu595okci6QysicNvyYu9hJHFveB0Xy3LjJ9Khi5lt2DwSGCRDlXRyrKcYzkEGrBq9+kV33UgtJ1ByGjOdy5GQ3xoXdQ2dvMLqFFntf/CZ8OhJyA3u8qPjaiuUUoUiydme0twyTf6TXSNaugWMTxL9pn146e/FFpbHR1g9t0Ows7i8ZPsQvI5PXbnH0qha1qz6zPHN3EUQiUoFj6YH+frRn9n77dVligEAuJISoMy5U8gbeo5Oc/KtbG1ZcYtkjVtH11u7ub4S3JMYDEL93GcD/AKUX9qeOxgidyqLEGwByDRSS87QWCCwSGFo3OE3LkdPjwBQPVEuYZIwNpcxbSUB2Z86UmvfQJr3if7dHIOxWXbjpxXiw0TWtRG61s3mUHghvDj40OU3LsUkY88cjAPwoxod/f6NIz29zIueChHArUYpdm9vI/qfZjUotJkN9YywyJlAT4soR4eR6EY+GKqsHZwjs5HrVzqVvbC4Y+z2sgJeUDjjFbTo3bS0m7u11dltrlkB5+64Pv8s+hrNe3enWqa8lhp19bQxQRboI7nhEVvJT6cY+VM43t6LqgP2ZEdrHkyKsve7sA+een4VZ7+/Se3lQlw56YBw3qfpVQgtTb3q20rICGy5jJK9M8Uc7yVnbZkjCgMfuc0PM3F8FNnHnYSgxE7U4ycZY+nvrzHNNKWyyrnwnAznn3U33eZCxlUefA6fOo11exoB3TFRkbiDz8ffQ1Zk9XkqxMxjPOccZAPlXLeR2j3AsQQTtBPl8fyqNPOkaAGNS7HGSucc/nUixuog22NHQjqYxgtz5D9arbxbLF4x1eMe4qa5RSKMvGGEcTA+ZUZP1pUOyGgNz1qo/tCiX/R6Wb+KNxtHlzXaVdYIVj9obnfpidQtjFjPvaUn6mg3ZaWSXtNpayOWWNtqA+QAY4+tKlQp9MzLo0XXNOttU06b2lMPFE0scicMhAJ4Pp7jWPd+/h6cj0pUqR0TtSTMQJ1vEsqePJ+ddSNX3q3QGuUq6EEEPFwSqFckgcDcc1FgZncAngYHFKlVz/ooIO7PaqjMxRWJCliR9aK9h4Fvtd7iVnVBBI/2Z2klRxz1rlKhS/gssU3aLUNOk1K1R0m9ltRJDLMuXUnHGRjI+PPvoTb9qNUgn75ZUaSMKrFkH2m7Gd3v+GKVKllFV0CkqOz9udZn1OOyjNvbwmdYz3UfJBPqxOOvlVsm0+KdC1w8szfzSSFj9a5SrUoxVUhnBFWANI02wXVtR72yt7gAJtWZNwXrnFeNc0axhktpYYikUsgVrcH7PBPOPMfjxSpVrc0Znw2eO1KxLeRW8FvDDBbxbY4o0wBk8+/PHWhdixt50uYuJoiCjeakdCPf767SosezK6Lrp2p3N9POblg7jA3+eKttrbwx28eEB7z727mlSpfGl5ZGYL3HibSLGdyHt1z6jqaEXmh25uUQSyqmei7f/AI0qVFaQaRVtUkaK7YKckygMzclvj61We0sfs3aNEV3bxR8ucn/PFKlVY+wbJcTN+/GwxDd4Tu6np76IRzuyeI5wfU0qVZy9mWepHdYCd7MS4Xxf161CaJdqyfxBwvQcgkf1rlKsoyc1CNYQzjJKoMAn3e6ndKnaVGSQIyJG8gXaACVxgceXNdpVTIHLWwhvofaJiwdmYELgDgkDy9BSpUqGQ//Z;" parent="1" vertex="1">
          <mxGeometry x="640" y="429.99999999999994" width="129" height="73.71" as="geometry" />
        </mxCell>
        <mxCell id="Au1_wK9jKBwFf4h1bWoh-19" value="&lt;h1 style=&quot;margin-top: 0px;&quot;&gt;como se gana dinero&lt;/h1&gt;&lt;p&gt;ONG&lt;/p&gt;&lt;p&gt;donaciones&lt;/p&gt;&lt;p&gt;subensionado por el estado&lt;/p&gt;&lt;p&gt;etc&lt;/p&gt;" style="text;html=1;whiteSpace=wrap;overflow=hidden;rounded=0;" parent="1" vertex="1">
          <mxGeometry x="600" y="570" width="180" height="120" as="geometry" />
        </mxCell>
        <mxCell id="Au1_wK9jKBwFf4h1bWoh-23" style="rounded=0;orthogonalLoop=1;jettySize=auto;html=1;" parent="1" source="Au1_wK9jKBwFf4h1bWoh-21" target="Au1_wK9jKBwFf4h1bWoh-22" edge="1">
          <mxGeometry relative="1" as="geometry" />
        </mxCell>
        <mxCell id="Au1_wK9jKBwFf4h1bWoh-25" style="rounded=0;orthogonalLoop=1;jettySize=auto;html=1;" parent="1" source="Au1_wK9jKBwFf4h1bWoh-21" target="Au1_wK9jKBwFf4h1bWoh-24" edge="1">
          <mxGeometry relative="1" as="geometry" />
        </mxCell>
        <mxCell id="Au1_wK9jKBwFf4h1bWoh-21" value="gente en su casa" style="shape=umlActor;verticalLabelPosition=bottom;verticalAlign=top;html=1;outlineConnect=0;" parent="1" vertex="1">
          <mxGeometry x="40" y="870" width="30" height="60" as="geometry" />
        </mxCell>
        <mxCell id="Au1_wK9jKBwFf4h1bWoh-30" style="edgeStyle=orthogonalEdgeStyle;rounded=0;orthogonalLoop=1;jettySize=auto;html=1;" parent="1" source="Au1_wK9jKBwFf4h1bWoh-22" target="Au1_wK9jKBwFf4h1bWoh-28" edge="1">
          <mxGeometry relative="1" as="geometry" />
        </mxCell>
        <mxCell id="Au1_wK9jKBwFf4h1bWoh-22" value="movil" style="html=1;verticalLabelPosition=bottom;align=center;labelBackgroundColor=#ffffff;verticalAlign=top;strokeWidth=2;strokeColor=#0080F0;shadow=0;dashed=0;shape=mxgraph.ios7.icons.smartphone;" parent="1" vertex="1">
          <mxGeometry x="211" y="940" width="18" height="30" as="geometry" />
        </mxCell>
        <mxCell id="Au1_wK9jKBwFf4h1bWoh-29" style="edgeStyle=orthogonalEdgeStyle;rounded=0;orthogonalLoop=1;jettySize=auto;html=1;" parent="1" source="Au1_wK9jKBwFf4h1bWoh-24" target="Au1_wK9jKBwFf4h1bWoh-28" edge="1">
          <mxGeometry relative="1" as="geometry" />
        </mxCell>
        <mxCell id="Au1_wK9jKBwFf4h1bWoh-24" value="web" style="verticalLabelPosition=bottom;aspect=fixed;html=1;shape=mxgraph.salesforce.web;" parent="1" vertex="1">
          <mxGeometry x="190" y="810" width="60" height="47.400000000000006" as="geometry" />
        </mxCell>
        <mxCell id="Au1_wK9jKBwFf4h1bWoh-32" style="edgeStyle=orthogonalEdgeStyle;rounded=0;orthogonalLoop=1;jettySize=auto;html=1;" parent="1" source="Au1_wK9jKBwFf4h1bWoh-28" target="Au1_wK9jKBwFf4h1bWoh-31" edge="1">
          <mxGeometry relative="1" as="geometry" />
        </mxCell>
        <mxCell id="Au1_wK9jKBwFf4h1bWoh-28" value="backend (logica)" style="rounded=1;whiteSpace=wrap;html=1;" parent="1" vertex="1">
          <mxGeometry x="320" y="880" width="120" height="40" as="geometry" />
        </mxCell>
        <mxCell id="Au1_wK9jKBwFf4h1bWoh-31" value="base de datos relacional" style="shape=cylinder3;whiteSpace=wrap;html=1;boundedLbl=1;backgroundOutline=1;size=15;" parent="1" vertex="1">
          <mxGeometry x="511" y="860" width="80" height="80" as="geometry" />
        </mxCell>
        <mxCell id="Au1_wK9jKBwFf4h1bWoh-33" value="" style="shape=image;verticalLabelPosition=bottom;labelBackgroundColor=default;verticalAlign=top;aspect=fixed;imageAspect=0;image=data:image/png,iVBORw0KGgoAAAANSUhEUgAAAT4AAACfCAMAAABX0UX9AAAA3lBMVEUsLDIAhNAAitMAgc8AebolsPMkrPIjqfIhovEAdbcAjdQgoPEAersmsvMsKS0AhdEipfEAbrEAfc0AkNUsJCQrRVwrR10fnfAtKColouQAaq4Ab7UAcrUAcsgiq+4ktvsuIx4sHhsmuv4qMTsjnuQAecwoN0UFiswkP1cLa6UhrPoZYJEfpfotHhQAgNQtP0orbIwqdZoqYoAYapsphbMJdrInl8wqT2YgS2kdVHkmpuInOUoeUHIVcaQOfrgcX4cRXZMvHg8YVoMHgMYMYp8hRGMcTHMhlN8AbcYYkOQ/97i9AAAF3klEQVR4nO3d/VPaSBzH8YhoC4SlyFpjkrar1BAOyvW09KDY4oHI9f//h243CZCH3SX2ftC6n/cwgOPD4Gv2m5DgoGUhhBBCCCGEEEIIIYQQQgghhBBCCCGEEEII/e+IQ52nfgy/b/TPz39dWxfkqR/Hbxmxbjqd95fNLwEAHx/pjm275p03Ly+/zAD4yJzAFtW8Ju/yy1sAPiZnZqf4+Ar8+vYT9iJlo6f2hu+oGXf59e8LAJaKTpYFPg74DYBlYtONXoZPAF5T+tSP7rnH5lu9zbYvDXgBQF10sNPLrb4Y8DNWoDp6Y9s6Pg7YvP701I/ymUacvr2PTzwPvHjqB/osI9bYzvG9l/A1L6+xCy4WHailqwq+o2LNb1h+hZxZ1S7Hd3QU4CAulxPa+WK+CDBW3Fh+eAu+bHRS0Iv4pIsPfLnobVEPfGWj02VVEvhKxQ81ZHpVH3wlogNbqofVJ44k9v2qtK/S813T+WgwnWgBidWX44GP631fdzq9U/VJEnGooeKr+u6xyXyE/OhEzZniK5xAaRetvuOjY0lm8BEr0et0fhDpL+yENV2+e24un9Ptdbb1ZpIBpuFupUkWX61Pz2V6RvA5s06mKct/BT9Qk6jtmjIV3+mL5yNhvZ7hW3/P7YHpVL3TEIXUUvAdv3w+2uvkyw4wXSx1271+lxMZu/oIH916dOFXcfw2NcB0oMOrLiJpY1cfmdVlfafJL+4Mqhq8WhivUxXfy991OL2OzK8XCBji9PWDm7yYYTDfRLr86vVbxg81tHqL7SbSXD6L3q6lfOsb2m3r9Fa7HYzBfBY9Vaw/23Xb/t7BjX6EwXxqv7qn9FtknhwazWc5gcpv6XptXyK4yh7amc3H9xG9ityvIgY475cZXBHne3X8atP2nil8FiG2sKpU6pX4ht9W4gsf4NwEDwrnVen5K1l/mMJnEToWbJL4APP1lwKcFM/JGM8nTjjL+YRfaoD7M8nf/YDPstjNWgEoBjjxG0jPp6r4Xvwxbzo2V/r5rtgC+rUHJv1O8InYVMVXiQa4LRtcEfii6ETpxwf4zlJp0I/gE2nWX6X/jxIDfFE0dF213xirTxud+G3Xbak3gKHidXTwWeLUFX96rPWrLJj8O3d8b0zlowtf8HG/A80GUP687+MbWSbxOQPf3/gtKy1RJbok95LbpfR1dOP5nDvfL/hJK76ObjwfIX1/F/fzlOPbavVp4YyL2Xyk2/f5QYUoWn5aP74HDvLn+4zmI0E7H/dTj2+rdcsyP8BoPmeWrLxH+N1kBthkPif0i3qcz70/0PjV0gNsMB9deUU8nregwVK3ACds9zOM5SMqvRXlexSt34BtdAzmk+PFL6YRWm0d8KIrcd2K78W1atu/cTGVj8wk2722t30xjfbTYLlaBysWf5WpfFYgm930n69o/ZIBNpfPuS8svfvMOXk20PglA2wuH5nl9e5yJ1XYQud3eBAyzvea9+Z1Kv6BCXx5P++hcEaFPRwe6hbggsV8xQzg409P3N32z5W+Cr4SftFFXEXX0f3ko7bJfBax7j3F4CbRkDOpG13J9czgswi58xSDm+TMdHwn7xpSvaEZfJxn4Xnefah+2xp+AKLhuzKcz3KCVSgf3CRi1cCnSYsnPk997fDGl+QqvjGJb3+0r+aTBr5M7G4k5bsCX6nYQsmX3uZt5hd8ueR+yRMXsfVrbO0a2PYVo6vi/J5cvTvD8JaLhocn4Pv1+AHISUm+Bt6/r5gTnORS8J2t2VM/1ucY6XqjMnzDOd67VBZxsn5yvuEY7zysiN6P9vANG3PoKWNpP8F3lq4xXM8Z3jVcE1uM0nyZOB7ecn1PKb8s33A9Zdhn7I09JH5XKb7GsHILvFLR1Wbx/btdeZVT/LudsjnhyVWab7g8/YTjjPI53Xh2I76hHQLvcTldT+j95HrjGQPeYyOWOxr9HJ6NA+D9UjSY30wt4P1q+A+pCCGEEEIIIYQQQgghhBBCCCGEEEIIIYQQ0vUfSFsb+bfw1rMAAAAASUVORK5CYII=;" parent="1" vertex="1">
          <mxGeometry x="550" y="782" width="56" height="28" as="geometry" />
        </mxCell>
        <mxCell id="Au1_wK9jKBwFf4h1bWoh-35" value="local" style="text;html=1;align=center;verticalAlign=middle;whiteSpace=wrap;rounded=0;" parent="1" vertex="1">
          <mxGeometry x="140" y="750" width="80.75" height="20" as="geometry" />
        </mxCell>
        <mxCell id="Au1_wK9jKBwFf4h1bWoh-36" value="React - libreria&lt;div&gt;Next - framework&lt;/div&gt;" style="text;html=1;align=center;verticalAlign=middle;whiteSpace=wrap;rounded=0;" parent="1" vertex="1">
          <mxGeometry x="198.5" y="1040" width="121.5" height="40" as="geometry" />
        </mxCell>
      </root>
    </mxGraphModel>
  </diagram>
</mxfile>
